<svg width="20" height="20" viewBox="0 0 20 20" fill="none" xmlns="http://www.w3.org/2000/svg">
<path fill-rule="evenodd" clip-rule="evenodd" d="M9.55837 11.0667C9.67556 11.1837 9.83441 11.2495 10 11.2495C10.1657 11.2495 10.3245 11.1837 10.4417 11.0667L16.6917 4.8167C16.8021 4.69822 16.8622 4.54152 16.8593 4.3796C16.8565 4.21768 16.7909 4.06319 16.6764 3.94868C16.5619 3.83417 16.4074 3.76858 16.2455 3.76572C16.0836 3.76287 15.9268 3.82297 15.8084 3.93337L10 9.7417L4.1917 3.93337C4.07322 3.82297 3.91652 3.76287 3.7546 3.76572C3.59268 3.76858 3.43819 3.83417 3.32368 3.94868C3.20917 4.06319 3.14358 4.21768 3.14072 4.3796C3.13787 4.54152 3.19797 4.69822 3.30837 4.8167L9.55837 11.0667Z" fill="#565656"/>
<path fill-rule="evenodd" clip-rule="evenodd" d="M9.55837 16.0666C9.67556 16.1837 9.83441 16.2494 10 16.2494C10.1657 16.2494 10.3245 16.1837 10.4417 16.0666L16.6917 9.81663C16.7531 9.75941 16.8024 9.69041 16.8365 9.61375C16.8707 9.53708 16.889 9.45432 16.8905 9.3704C16.892 9.28648 16.8766 9.20312 16.8451 9.1253C16.8137 9.04748 16.7669 8.97678 16.7076 8.91743C16.6482 8.85808 16.5775 8.8113 16.4997 8.77986C16.4219 8.74843 16.3385 8.73299 16.2546 8.73447C16.1707 8.73595 16.0879 8.75432 16.0113 8.78848C15.9346 8.82264 15.8656 8.87189 15.8084 8.9333L10 14.7416L4.1917 8.9333C4.07322 8.8229 3.91652 8.7628 3.7546 8.76565C3.59268 8.76851 3.43819 8.8341 3.32368 8.94861C3.20917 9.06313 3.14358 9.21761 3.14072 9.37953C3.13787 9.54145 3.19797 9.69815 3.30837 9.81663L9.55837 16.0666Z" fill="#565656"/>
</svg>
