<svg width="16" height="18" viewBox="0 0 16 18" fill="none" xmlns="http://www.w3.org/2000/svg">
<path fill-rule="evenodd" clip-rule="evenodd" d="M11.75 2.73162V2.92079C12.8325 3.01978 13.9106 3.16212 14.9817 3.34746C15.0625 3.36146 15.1399 3.39126 15.2092 3.43515C15.2786 3.47904 15.3386 3.53616 15.3859 3.60326C15.4332 3.67035 15.4668 3.74609 15.4848 3.82617C15.5028 3.90624 15.5048 3.98908 15.4908 4.06996C15.4768 4.15083 15.447 4.22815 15.4031 4.29751C15.3593 4.36686 15.3021 4.42689 15.235 4.47417C15.1679 4.52146 15.0922 4.55506 15.0121 4.57307C14.932 4.59107 14.8492 4.59313 14.7683 4.57912L14.5942 4.54996L13.7567 15.4416C13.7084 16.0696 13.4248 16.6562 12.9627 17.0842C12.5006 17.5122 11.894 17.7499 11.2642 17.75H4.73667C4.10683 17.7499 3.50022 17.5122 3.03811 17.0842C2.576 16.6562 2.29246 16.0696 2.24417 15.4416L1.40584 4.54996L1.23167 4.57912C1.1508 4.59313 1.06796 4.59107 0.987883 4.57307C0.907807 4.55506 0.832061 4.52146 0.76497 4.47417C0.629475 4.37869 0.537462 4.23329 0.509172 4.06996C0.480882 3.90663 0.518634 3.73875 0.614121 3.60326C0.709608 3.46776 0.85501 3.37575 1.01834 3.34746C2.08939 3.16189 3.16749 3.01956 4.25001 2.92079V2.73162C4.25001 1.42829 5.26084 0.314957 6.59667 0.272457C7.53227 0.242514 8.46858 0.242514 9.40417 0.272457C10.74 0.314957 11.75 1.42829 11.75 2.73162ZM6.63667 1.52162C7.54561 1.49255 8.45524 1.49255 9.36417 1.52162C9.99167 1.54162 10.5 2.06996 10.5 2.73162V2.82579C8.83487 2.72466 7.16514 2.72466 5.50001 2.82579V2.73162C5.50001 2.06996 6.00751 1.54162 6.63667 1.52162ZM6.34084 6.47579C6.33767 6.39371 6.31836 6.31307 6.28402 6.23845C6.24967 6.16384 6.20097 6.09672 6.14069 6.04093C6.08041 5.98513 6.00973 5.94176 5.93269 5.91328C5.85565 5.88481 5.77375 5.87178 5.69167 5.87496C5.6096 5.87813 5.52895 5.89744 5.45433 5.93178C5.37972 5.96612 5.3126 6.01482 5.25681 6.0751C5.20102 6.13538 5.15764 6.20606 5.12917 6.28311C5.10069 6.36015 5.08767 6.44205 5.09084 6.52412L5.38001 14.0241C5.38642 14.1898 5.45837 14.3461 5.58003 14.4587C5.64027 14.5144 5.71091 14.5578 5.7879 14.5862C5.86489 14.6147 5.94673 14.6277 6.02876 14.6245C6.11078 14.6214 6.19137 14.6021 6.26593 14.5677C6.3405 14.5334 6.40757 14.4848 6.46332 14.4245C6.51908 14.3643 6.56242 14.2936 6.59088 14.2166C6.61933 14.1397 6.63235 14.0578 6.62917 13.9758L6.34084 6.47579ZM10.9075 6.52412C10.9136 6.44047 10.9028 6.35644 10.8758 6.27705C10.8487 6.19765 10.806 6.12452 10.7501 6.06199C10.6942 5.99947 10.6262 5.94884 10.5504 5.91311C10.4745 5.87739 10.3922 5.85731 10.3083 5.85406C10.2245 5.85082 10.1409 5.86448 10.0625 5.89423C9.98408 5.92397 9.91245 5.9692 9.85187 6.02722C9.79129 6.08523 9.74302 6.15484 9.70991 6.23191C9.6768 6.30898 9.65955 6.39192 9.65917 6.47579L9.37001 13.9758C9.3636 14.1416 9.4233 14.3031 9.53597 14.4248C9.64865 14.5466 9.80508 14.6185 9.97084 14.625C10.1366 14.6314 10.2981 14.5717 10.4199 14.459C10.5416 14.3463 10.6136 14.1899 10.62 14.0241L10.9075 6.52412Z" fill="#E51A1A"/>
</svg>
