<svg width="18" height="18" viewBox="0 0 18 18" fill="none" xmlns="http://www.w3.org/2000/svg">
<path d="M15 16.5H4.875C4.17881 16.5 3.51113 16.2234 3.01884 15.7312C2.52656 15.2389 2.25 14.5712 2.25 13.875V3.75C2.25 3.15326 2.48705 2.58097 2.90901 2.15901C3.33097 1.73705 3.90326 1.5 4.5 1.5H15C15.1989 1.5 15.3897 1.57902 15.5303 1.71967C15.671 1.86032 15.75 2.05109 15.75 2.25V15.75C15.75 15.9489 15.671 16.1397 15.5303 16.2803C15.3897 16.421 15.1989 16.5 15 16.5ZM14.25 15V12.75H4.875C4.57663 12.75 4.29048 12.8685 4.0795 13.0795C3.86853 13.2905 3.75 13.5766 3.75 13.875C3.75 14.1734 3.86853 14.4595 4.0795 14.6705C4.29048 14.8815 4.57663 15 4.875 15H14.25Z" fill="white"/>
</svg>
