<svg width="10" height="10" viewBox="0 0 10 10" fill="none" xmlns="http://www.w3.org/2000/svg">
<path fill-rule="evenodd" clip-rule="evenodd" d="M0.646715 0.646443C0.740465 0.55281 0.867548 0.500217 1.00005 0.500217C1.13255 0.500217 1.25963 0.55281 1.35338 0.646443L5.00005 4.29311L8.64671 0.646443C8.69249 0.597319 8.74769 0.557917 8.80902 0.530589C8.87035 0.503261 8.93656 0.488567 9.0037 0.487383C9.07083 0.486198 9.13752 0.498548 9.19978 0.523695C9.26204 0.548842 9.31859 0.586272 9.36607 0.633751C9.41355 0.68123 9.45098 0.737786 9.47613 0.800045C9.50128 0.862304 9.51363 0.92899 9.51244 0.996125C9.51126 1.06326 9.49656 1.12947 9.46924 1.1908C9.44191 1.25214 9.40251 1.30734 9.35338 1.35311L5.70671 4.99978L9.35338 8.64644C9.40251 8.69222 9.44191 8.74742 9.46924 8.80875C9.49656 8.87008 9.51126 8.93629 9.51244 9.00343C9.51363 9.07056 9.50128 9.13725 9.47613 9.19951C9.45098 9.26177 9.41355 9.31832 9.36607 9.3658C9.31859 9.41328 9.26204 9.45071 9.19978 9.47586C9.13752 9.50101 9.07083 9.51335 9.0037 9.51217C8.93656 9.51099 8.87035 9.49629 8.80902 9.46896C8.74769 9.44164 8.69249 9.40223 8.64671 9.35311L5.00005 5.70644L1.35338 9.35311C1.2586 9.44143 1.13323 9.48951 1.0037 9.48723C0.874166 9.48494 0.750576 9.43247 0.658967 9.34086C0.567358 9.24925 0.514884 9.12566 0.512598 8.99612C0.510313 8.86659 0.558395 8.74123 0.646715 8.64644L4.29338 4.99978L0.646715 1.35311C0.553081 1.25936 0.500488 1.13228 0.500488 0.999777C0.500488 0.867276 0.553081 0.740194 0.646715 0.646443Z" fill="black"/>
</svg>
