<svg width="15" height="14" viewBox="0 0 15 14" fill="none" xmlns="http://www.w3.org/2000/svg">
<g clip-path="url(#clip0_2283_1010)">
<path d="M13.9283 2.96227C13.6549 2.42758 13.2598 1.96461 12.7746 1.61069C12.2895 1.25676 11.728 1.0218 11.1354 0.924731C10.5428 0.827666 9.93566 0.871218 9.36297 1.05188C8.79028 1.23254 8.26806 1.54525 7.83841 1.96479L7.33676 2.41978L6.8526 1.97646C6.42261 1.55027 5.89723 1.23271 5.32001 1.05011C4.7428 0.867514 4.13037 0.825131 3.5335 0.926478C2.93999 1.01862 2.37716 1.25151 1.89207 1.60569C1.40699 1.95986 1.01374 2.42502 0.745219 2.96227C0.383897 3.66818 0.257505 4.47104 0.38447 5.25382C0.511434 6.03659 0.885117 6.75834 1.45104 7.31385L6.91676 12.9487C6.97118 13.0052 7.03642 13.0501 7.10858 13.0808C7.18074 13.1114 7.25835 13.1273 7.33676 13.1273C7.41517 13.1273 7.49277 13.1114 7.56493 13.0808C7.6371 13.0501 7.70233 13.0052 7.75675 12.9487L13.2166 7.32552C13.7845 6.76884 14.1598 6.04539 14.2878 5.26056C14.4158 4.47573 14.2898 3.67053 13.9283 2.96227Z" fill="#00953E"/>
</g>
<defs>
<clipPath id="clip0_2283_1010">
<rect width="14" height="14" fill="white" transform="translate(0.336456)"/>
</clipPath>
</defs>
</svg>
