<svg width="15" height="14" viewBox="0 0 15 14" fill="none" xmlns="http://www.w3.org/2000/svg">
<path fill-rule="evenodd" clip-rule="evenodd" d="M7.33649 0.875C6.52426 0.875 5.7453 1.19766 5.17097 1.77199C4.59664 2.34632 4.27399 3.12527 4.27399 3.9375V5.6875C3.80986 5.6875 3.36474 5.87187 3.03655 6.20006C2.70836 6.52825 2.52399 6.97337 2.52399 7.4375V11.375C2.52399 11.8391 2.70836 12.2842 3.03655 12.6124C3.36474 12.9406 3.80986 13.125 4.27399 13.125H10.399C10.8631 13.125 11.3082 12.9406 11.6364 12.6124C11.9646 12.2842 12.149 11.8391 12.149 11.375V7.4375C12.149 6.97337 11.9646 6.52825 11.6364 6.20006C11.3082 5.87187 10.8631 5.6875 10.399 5.6875V3.9375C10.399 2.24583 9.02815 0.875 7.33649 0.875ZM9.52399 5.6875V3.9375C9.52399 3.35734 9.29352 2.80094 8.88328 2.3907C8.47305 1.98047 7.91665 1.75 7.33649 1.75C6.75633 1.75 6.19993 1.98047 5.78969 2.3907C5.37945 2.80094 5.14899 3.35734 5.14899 3.9375V5.6875H9.52399Z" fill="#00953E"/>
</svg>
