<svg width="18" height="18" viewBox="0 0 18 18" fill="none" xmlns="http://www.w3.org/2000/svg">
<path fill-rule="evenodd" clip-rule="evenodd" d="M12.375 2.8125C12.6734 2.8125 12.9595 2.93103 13.1705 3.142C13.3815 3.35298 13.5 3.63913 13.5 3.9375V14.0625C13.5 14.3609 13.3815 14.647 13.1705 14.858C12.9595 15.069 12.6734 15.1875 12.375 15.1875H7.87499C7.57662 15.1875 7.29048 15.069 7.0795 14.858C6.86852 14.647 6.74999 14.3609 6.74999 14.0625V11.25C6.74999 11.1008 6.69073 10.9577 6.58524 10.8523C6.47975 10.7468 6.33668 10.6875 6.18749 10.6875C6.03831 10.6875 5.89524 10.7468 5.78975 10.8523C5.68426 10.9577 5.62499 11.1008 5.62499 11.25V14.0625C5.62499 14.6592 5.86205 15.2315 6.284 15.6535C6.70596 16.0754 7.27826 16.3125 7.87499 16.3125H12.375C12.9717 16.3125 13.544 16.0754 13.966 15.6535C14.3879 15.2315 14.625 14.6592 14.625 14.0625V3.9375C14.625 3.34076 14.3879 2.76847 13.966 2.34651C13.544 1.92455 12.9717 1.6875 12.375 1.6875H7.87499C7.27826 1.6875 6.70596 1.92455 6.284 2.34651C5.86205 2.76847 5.62499 3.34076 5.62499 3.9375V6.75C5.62499 6.89918 5.68426 7.04226 5.78975 7.14775C5.89524 7.25324 6.03831 7.3125 6.18749 7.3125C6.33668 7.3125 6.47975 7.25324 6.58524 7.14775C6.69073 7.04226 6.74999 6.89918 6.74999 6.75V3.9375C6.74999 3.63913 6.86852 3.35298 7.0795 3.142C7.29048 2.93103 7.57662 2.8125 7.87499 2.8125H12.375ZM4.33499 6.3525C4.22952 6.24716 4.08656 6.18799 3.93749 6.18799C3.78843 6.18799 3.64546 6.24716 3.53999 6.3525L1.28999 8.6025C1.18466 8.70797 1.12549 8.85094 1.12549 9C1.12549 9.14906 1.18466 9.29203 1.28999 9.3975L3.53999 11.6475C3.64662 11.7469 3.78766 11.801 3.93339 11.7984C4.07911 11.7958 4.21815 11.7368 4.32121 11.6337C4.42427 11.5307 4.4833 11.3916 4.48587 11.2459C4.48845 11.1002 4.43435 10.9591 4.33499 10.8525L3.04499 9.5625H11.25C11.3992 9.5625 11.5423 9.50324 11.6477 9.39775C11.7532 9.29226 11.8125 9.14918 11.8125 9C11.8125 8.85082 11.7532 8.70774 11.6477 8.60225C11.5423 8.49676 11.3992 8.4375 11.25 8.4375H3.04499L4.33499 7.1475C4.44033 7.04203 4.4995 6.89906 4.4995 6.75C4.4995 6.60094 4.44033 6.45797 4.33499 6.3525Z" fill="white"/>
</svg>
