<svg width="14" height="14" viewBox="0 0 14 14" fill="none" xmlns="http://www.w3.org/2000/svg">
<path fill-rule="evenodd" clip-rule="evenodd" d="M2.49994 5C2.49994 3.80653 2.97405 2.66193 3.81796 1.81802C4.66187 0.974106 5.80647 0.5 6.99994 0.5C8.19342 0.5 9.33801 0.974106 10.1819 1.81802C11.0258 2.66193 11.4999 3.80653 11.4999 5V5.5C11.4999 6.91533 12.0333 8.20467 12.9119 9.18C12.9667 9.24066 13.0057 9.31381 13.0256 9.39304C13.0456 9.47228 13.0458 9.55519 13.0262 9.63452C13.0067 9.71386 12.968 9.78719 12.9136 9.84812C12.8591 9.90904 12.7906 9.9557 12.7139 9.984C11.6846 10.364 10.6073 10.644 9.49327 10.8127C9.51836 11.1554 9.4725 11.4997 9.35856 11.8239C9.24463 12.1482 9.06506 12.4454 8.83108 12.6972C8.5971 12.9489 8.31373 13.1497 7.99867 13.287C7.6836 13.4243 7.34362 13.4951 6.99994 13.4951C6.65626 13.4951 6.31628 13.4243 6.00122 13.287C5.68615 13.1497 5.40278 12.9489 5.1688 12.6972C4.93482 12.4454 4.75526 12.1482 4.64132 11.8239C4.52738 11.4997 4.48153 11.1554 4.50661 10.8127C3.40771 10.6461 2.3286 10.3683 1.28594 9.98333C1.20936 9.95506 1.14087 9.90847 1.08645 9.84763C1.03203 9.78679 0.993326 9.71355 0.973729 9.63431C0.954132 9.55507 0.954234 9.47224 0.974027 9.39304C0.99382 9.31385 1.0327 9.24071 1.08727 9.18C1.99848 8.17112 2.50199 6.85946 2.49994 5.5V5ZM5.50127 10.9333C5.49275 11.1355 5.52519 11.3372 5.59666 11.5265C5.66813 11.7157 5.77715 11.8886 5.91716 12.0346C6.05716 12.1807 6.22526 12.2969 6.41134 12.3763C6.59742 12.4556 6.79764 12.4966 6.99994 12.4966C7.20225 12.4966 7.40246 12.4556 7.58854 12.3763C7.77462 12.2969 7.94272 12.1807 8.08273 12.0346C8.22273 11.8886 8.33175 11.7157 8.40322 11.5265C8.47469 11.3372 8.50714 11.1355 8.49861 10.9333C7.50152 11.0232 6.49837 11.0232 5.50127 10.9333Z" fill="white"/>
</svg>
