<svg width="18" height="18" viewBox="0 0 18 18" fill="none" xmlns="http://www.w3.org/2000/svg">
<path d="M9 12.75C9.2125 12.75 9.39075 12.678 9.53475 12.534C9.67875 12.39 9.7505 12.212 9.75 12C9.7495 11.788 9.6775 11.61 9.534 11.466C9.3905 11.322 9.2125 11.25 9 11.25C8.7875 11.25 8.6095 11.322 8.466 11.466C8.3225 11.61 8.2505 11.788 8.25 12C8.2495 12.212 8.3215 12.3902 8.466 12.5347C8.6105 12.6792 8.7885 12.751 9 12.75ZM9 9.75C9.2125 9.75 9.39075 9.678 9.53475 9.534C9.67875 9.39 9.7505 9.212 9.75 9V6C9.75 5.7875 9.678 5.6095 9.534 5.466C9.39 5.3225 9.212 5.2505 9 5.25C8.788 5.2495 8.61 5.3215 8.466 5.466C8.322 5.6105 8.25 5.7885 8.25 6V9C8.25 9.2125 8.322 9.39075 8.466 9.53475C8.61 9.67875 8.788 9.7505 9 9.75ZM6.80625 15.75C6.60625 15.75 6.41575 15.7125 6.23475 15.6375C6.05375 15.5625 5.89425 15.4562 5.75625 15.3187L2.68125 12.2438C2.54375 12.1063 2.4375 11.9468 2.3625 11.7653C2.2875 11.5837 2.25 11.3935 2.25 11.1945V6.807C2.25 6.607 2.2875 6.4165 2.3625 6.2355C2.4375 6.0545 2.54375 5.895 2.68125 5.757L5.75625 2.682C5.89375 2.5445 6.05325 2.43825 6.23475 2.36325C6.41625 2.28825 6.60675 2.2505 6.80625 2.25H11.1938C11.3938 2.25 11.5845 2.2875 11.766 2.3625C11.9475 2.4375 12.1068 2.54375 12.2438 2.68125L15.3187 5.75625C15.4562 5.89375 15.5625 6.05325 15.6375 6.23475C15.7125 6.41625 15.75 6.60675 15.75 6.80625V11.1938C15.75 11.3938 15.7125 11.5845 15.6375 11.766C15.5625 11.9475 15.4562 12.1068 15.3187 12.2438L12.2438 15.3187C12.1063 15.4562 11.9468 15.5625 11.7653 15.6375C11.5837 15.7125 11.3933 15.75 11.1938 15.75H6.80625Z" fill="white"/>
</svg>
