<svg width="17" height="18" viewBox="0 0 17 18" fill="none" xmlns="http://www.w3.org/2000/svg">
<path d="M14.5646 7.92477C14.5663 6.98829 14.3824 6.06079 14.0235 5.19577C13.6648 4.33077 13.1382 3.54531 12.4742 2.88477C11.1247 1.60829 9.33063 0.907969 7.47323 0.932509C5.61573 0.957119 3.84103 1.70469 2.52563 3.01651C1.21031 4.32839 0.45803 6.10111 0.42863 7.95871C0.39923 9.81631 1.09481 11.6119 2.36777 12.9647C3.60395 14.2009 5.25077 14.9405 6.99597 15.0431C8.74113 15.1457 10.4634 14.6043 11.8358 13.5215L15.6326 17.3207L16.8326 16.1207L13.031 12.3431C14.0278 11.0864 14.5685 9.52867 14.5646 7.92467L14.5646 7.92477ZM7.42463 13.3848C6.70877 13.3868 5.99963 13.247 5.33803 12.9735C4.67643 12.7 4.07569 12.2981 3.57021 11.7912C2.56967 10.7633 2.01381 9.38299 2.02287 7.94859C2.03185 6.51421 2.60497 5.14099 3.61833 4.12579C4.63169 3.11059 6.00393 2.53485 7.43833 2.52313C8.87279 2.51149 10.2541 3.06477 11.2839 4.06337C12.3054 5.08697 12.8792 6.47417 12.8792 7.92017C12.8792 9.36617 12.3054 10.7534 11.2839 11.777C10.779 12.287 10.178 12.6917 9.51549 12.9677C8.85307 13.2438 8.14237 13.3856 7.42469 13.3849L7.42463 13.3848Z" fill="white"/>
</svg>
