<svg width="15" height="14" viewBox="0 0 15 14" fill="none" xmlns="http://www.w3.org/2000/svg">
<path fill-rule="evenodd" clip-rule="evenodd" d="M4.71146 3.5C4.71146 2.80381 4.98802 2.13613 5.48031 1.64384C5.97259 1.15156 6.64027 0.875 7.33646 0.875C8.03265 0.875 8.70033 1.15156 9.19262 1.64384C9.6849 2.13613 9.96146 2.80381 9.96146 3.5C9.96146 4.19619 9.6849 4.86387 9.19262 5.35615C8.70033 5.84844 8.03265 6.125 7.33646 6.125C6.64027 6.125 5.97259 5.84844 5.48031 5.35615C4.98802 4.86387 4.71146 4.19619 4.71146 3.5ZM2.52454 11.7279C2.54421 10.4647 3.05984 9.25986 3.96011 8.3735C4.86037 7.48714 6.07308 6.99034 7.33646 6.99034C8.59984 6.99034 9.81255 7.48714 10.7128 8.3735C11.6131 9.25986 12.1287 10.4647 12.1484 11.7279C12.1499 11.813 12.1266 11.8966 12.0813 11.9686C12.036 12.0406 11.9708 12.0978 11.8935 12.1333C10.4638 12.7888 8.90922 13.1271 7.33646 13.125C5.71129 13.125 4.16721 12.7703 2.77946 12.1333C2.70216 12.0978 2.63688 12.0406 2.59161 11.9686C2.54633 11.8966 2.52303 11.813 2.52454 11.7279Z" fill="#00953E"/>
</svg>
