<svg width="18" height="18" viewBox="0 0 18 18" fill="none" xmlns="http://www.w3.org/2000/svg">
<path fill-rule="evenodd" clip-rule="evenodd" d="M5.62483 4.5C5.62483 3.60489 5.98041 2.74645 6.61334 2.11351C7.24628 1.48058 8.10472 1.125 8.99983 1.125C9.89493 1.125 10.7534 1.48058 11.3863 2.11351C12.0192 2.74645 12.3748 3.60489 12.3748 4.5C12.3748 5.39511 12.0192 6.25355 11.3863 6.88649C10.7534 7.51942 9.89493 7.875 8.99983 7.875C8.10472 7.875 7.24628 7.51942 6.61334 6.88649C5.98041 6.25355 5.62483 5.39511 5.62483 4.5ZM2.81308 15.0787C2.83837 13.4546 3.50131 11.9055 4.6588 10.7659C5.81629 9.62633 7.37549 8.98759 8.99983 8.98759C10.6242 8.98759 12.1834 9.62633 13.3409 10.7659C14.4983 11.9055 15.1613 13.4546 15.1866 15.0787C15.1885 15.1881 15.1586 15.2956 15.1004 15.3882C15.0421 15.4808 14.9582 15.5544 14.8588 15.6C13.0207 16.4428 11.0219 16.8777 8.99983 16.875C6.91033 16.875 4.92508 16.419 3.14083 15.6C3.04144 15.5544 2.95751 15.4808 2.8993 15.3882C2.84109 15.2956 2.81113 15.1881 2.81308 15.0787Z" fill="white"/>
</svg>
