<svg width="32" height="32" viewBox="0 0 32 32" fill="none" xmlns="http://www.w3.org/2000/svg">
<rect width="32" height="32" rx="16" fill="#F6F6F6"/>
<path d="M16 23.5C14.866 23.5032 13.7464 23.2466 12.727 22.75C12.3539 22.5685 11.9964 22.3566 11.6582 22.1163L11.5555 22.0413C10.6253 21.3547 9.86486 20.4642 9.33245 19.438C8.78175 18.3759 8.49613 17.1964 8.49991 16C8.49991 11.8579 11.8578 8.5 16 8.5C20.1421 8.5 23.5 11.8579 23.5 16C23.5037 17.1958 23.2184 18.3748 22.6682 19.4365C22.1365 20.4621 21.3771 21.3523 20.4482 22.039C20.0978 22.2955 19.7259 22.5213 19.3367 22.714L19.2767 22.744C18.2566 23.2433 17.1356 23.5019 16 23.5ZM16 19.75C14.8761 19.7478 13.8457 20.3755 13.3322 21.3752C15.0132 22.2079 16.9867 22.2079 18.6677 21.3752V21.3715C18.1536 20.3729 17.1232 19.7466 16 19.75ZM16 18.25C17.6245 18.2521 19.1225 19.1276 19.9217 20.542L19.933 20.5322L19.9435 20.5233L19.9307 20.5345L19.9232 20.5405C21.82 18.9018 22.4982 16.2568 21.6239 13.9076C20.7497 11.5584 18.5073 10.0002 16.0007 10.0002C13.4941 10.0002 11.2517 11.5584 10.3775 13.9076C9.50323 16.2568 10.1815 18.9018 12.0782 20.5405C12.8779 19.1268 14.3757 18.252 16 18.25ZM16 17.5C14.3431 17.5 13 16.1569 13 14.5C13 12.8431 14.3431 11.5 16 11.5C17.6568 11.5 19 12.8431 19 14.5C19 15.2956 18.6839 16.0587 18.1213 16.6213C17.5587 17.1839 16.7956 17.5 16 17.5ZM16 13C15.1715 13 14.5 13.6716 14.5 14.5C14.5 15.3284 15.1715 16 16 16C16.8284 16 17.5 15.3284 17.5 14.5C17.5 13.6716 16.8284 13 16 13Z" fill="black"/>
</svg>
