<svg width="79" height="88" viewBox="0 0 79 88" fill="none" xmlns="http://www.w3.org/2000/svg">
<g clip-path="url(#clip0_2284_3898)">
<path d="M38.9691 26.3163C36.3388 26.3163 33.7675 25.5446 31.5805 24.0987C29.3934 22.6529 27.6888 20.5979 26.6823 18.1935C25.6757 15.7892 25.4123 13.1435 25.9255 10.5911C26.4386 8.03868 27.7052 5.69413 29.5652 3.85393C31.4251 2.01373 33.7948 0.76054 36.3746 0.25283C38.9544 -0.254879 41.6284 0.00569548 44.0585 1.0016C46.4886 1.99751 48.5657 3.68402 50.027 5.84787C51.4884 8.01171 52.2684 10.5557 52.2684 13.1581C52.2627 16.6462 50.8597 19.9897 48.3668 22.4561C45.874 24.9225 42.4946 26.3106 38.9691 26.3163ZM38.9691 1.16289C36.5713 1.16289 34.2272 1.8664 32.2335 3.18446C30.2397 4.50251 28.6858 6.37591 27.7681 8.56775C26.8505 10.7596 26.6104 13.1714 27.0782 15.4983C27.546 17.8251 28.7007 19.9625 30.3963 21.6401C32.0918 23.3176 34.2521 24.4601 36.6039 24.9229C38.9557 25.3857 41.3934 25.1482 43.6087 24.2403C45.8241 23.3324 47.7176 21.7949 49.0498 19.8223C50.3819 17.8497 51.093 15.5306 51.093 13.1581C51.0873 9.97853 49.8081 6.93077 47.5357 4.68244C45.2633 2.43412 42.1828 1.16853 38.9691 1.16289Z" fill="white"/>
<path d="M26.7415 13.4896L25.7757 12.8267C27.3566 10.5688 28.0324 10.9448 28.2871 11.0824C28.3948 11.1425 28.4947 11.2064 28.5907 11.2665C28.9159 11.4758 28.9335 11.4603 29.0197 11.4254C29.1847 11.3103 29.3388 11.1805 29.48 11.0378C29.9972 10.5494 30.6417 9.93886 31.439 10.1075C31.7236 10.1776 32 10.277 32.2637 10.404C32.8024 10.6424 33.0649 10.7296 33.3156 10.5881C34.0992 10.1385 34.4303 9.93498 34.5047 9.35354C34.5948 8.67324 35.1884 8.27398 35.7134 7.92318C36.0777 7.67897 36.497 7.40375 36.497 7.17311C36.4996 7.05841 36.4781 6.94441 36.434 6.83832C36.3898 6.73223 36.3239 6.63637 36.2403 6.55678C36.0542 6.33195 35.7075 5.91137 36.0327 5.28341C36.1956 4.99889 36.4221 4.75494 36.6948 4.57017C37.0102 4.3279 37.0141 4.29689 36.9906 4.14571C36.9593 3.9519 36.926 3.78715 36.9005 3.66117C36.8104 3.2309 36.734 2.85878 37.1414 2.39556C37.4275 2.0622 39.1239 0.275218 39.1964 0.193815L40.0524 0.990397C40.0348 1.00978 38.2894 2.83552 38.0191 3.15532C38.0107 3.16262 38.0034 3.17111 37.9975 3.18051C37.9975 3.23478 38.023 3.33169 38.0426 3.42084C38.07 3.56039 38.1072 3.73482 38.1425 3.96159C38.2757 4.81438 37.7311 5.23302 37.4059 5.48304C37.2908 5.56224 37.1867 5.65608 37.0964 5.76214C37.112 5.77926 37.1263 5.79739 37.1395 5.8164C37.4817 6.18605 37.6669 6.67191 37.6566 7.17311C37.6566 8.02009 36.9397 8.49881 36.3657 8.8845C36.0934 9.06669 35.684 9.34191 35.6624 9.50084C35.5097 10.6792 34.7241 11.125 33.8994 11.596C33.1041 12.0476 32.3323 11.7123 31.7838 11.4661C31.5954 11.3741 31.3986 11.3002 31.1961 11.2452C31.0178 11.2045 30.5163 11.6774 30.3028 11.879C30.0816 12.1148 29.8261 12.3166 29.5447 12.4778C28.8454 12.8131 28.3145 12.4778 27.9638 12.2491L27.8855 12.2007C27.4508 12.5809 27.0664 13.014 26.7415 13.4896Z" fill="white"/>
<path d="M43.792 14.4005H43.7156C43.4984 14.3989 43.2837 14.354 43.0844 14.2684C42.8852 14.1829 42.7054 14.0584 42.5559 13.9024C42.5107 13.8438 42.4507 13.7981 42.3819 13.7699C42.3131 13.7416 42.238 13.7318 42.1642 13.7415H41.7841C41.0671 13.7609 40.3228 13.7803 39.9016 13.3016C39.7933 13.1741 39.716 13.0238 39.6756 12.8622C39.6352 12.7006 39.6327 12.532 39.6685 12.3693C39.7645 11.7879 39.7351 11.7161 39.6254 11.6251C39.4412 11.5165 38.975 11.1948 38.8888 10.6792C38.8649 10.514 38.8804 10.3456 38.9341 10.1874C38.9879 10.0292 39.0784 9.88565 39.1983 9.7683C39.4236 9.53185 40.836 8.26429 41.6431 8.35151C41.7551 8.36274 41.863 8.39957 41.9582 8.45911C42.0534 8.51864 42.1333 8.59925 42.1916 8.69457C42.221 8.74496 42.2582 8.81085 42.2993 8.88838C42.4446 9.17076 42.6157 9.43935 42.8106 9.69078C42.9007 9.66558 43.0065 9.62876 43.1279 9.59387C43.888 9.35548 44.5619 9.16941 45.0869 9.29927C45.8058 9.47758 47.8627 10.8905 47.5767 12.0922C47.3083 13.224 46.4954 13.2202 45.7079 13.2163H45.5237C45.3964 13.2163 45.3278 13.2744 45.1065 13.5807C44.8851 13.8869 44.511 14.4005 43.792 14.4005ZM42.1622 12.5767C42.3854 12.5664 42.6082 12.6038 42.8154 12.6864C43.0226 12.769 43.2094 12.8949 43.363 13.0554C43.4117 13.1158 43.4743 13.1638 43.5455 13.1954C43.6167 13.2271 43.6945 13.2416 43.7724 13.2376C43.8782 13.2376 43.9292 13.2105 44.1642 12.8965C44.3993 12.5825 44.7813 12.0456 45.5355 12.0456H45.7314C45.9508 12.0598 46.1712 12.0474 46.3876 12.0088C46.4138 11.9522 46.4341 11.8931 46.4483 11.8324C46.4131 11.4719 45.273 10.5319 44.8205 10.4195C44.5697 10.3575 43.841 10.5862 43.4982 10.6947C43.3053 10.7598 43.1092 10.8148 42.9105 10.8595C42.2033 10.9835 41.7351 10.2296 41.3727 9.60162C40.9145 9.85659 40.4912 10.1686 40.1131 10.53C40.1574 10.5698 40.2053 10.6055 40.2561 10.6366L40.3423 10.6928C40.9516 11.1696 40.9927 11.6929 40.8497 12.5476C41.1552 12.5912 41.4644 12.6036 41.7724 12.5844C41.8899 12.5806 42.029 12.5767 42.1622 12.5767Z" fill="white"/>
<path d="M40.309 25.6263C40.2747 25.2395 40.1614 24.8637 39.976 24.5215C39.8624 24.3277 39.3883 24.2289 39.0083 24.1475C38.7048 24.0946 38.4079 24.0095 38.1229 23.8936C37.9945 23.8361 37.8799 23.7523 37.7867 23.6477C37.6935 23.5431 37.6238 23.4202 37.5822 23.2869C37.4157 22.7404 37.737 22.1454 38.0563 21.6279C37.9618 21.4696 37.8592 21.3163 37.7487 21.1685C37.5881 20.9437 37.4079 20.6898 37.2413 20.3933C37.0291 19.9998 36.8848 19.574 36.8143 19.1335C36.7323 18.6276 36.5605 18.1401 36.3069 17.6934C35.9915 17.1585 35.7193 17.1682 35.2393 17.1876C35.0023 17.2055 34.764 17.1932 34.5302 17.1507C34.0502 17.0441 33.6859 16.6177 33.2667 16.1255C32.965 15.7727 32.5517 15.2901 32.2872 15.2358C31.9698 15.1738 31.3959 15.5711 30.9767 15.8619C30.6837 16.0885 30.3608 16.2744 30.0168 16.4142C29.2959 16.6488 28.7885 16.1216 28.4496 15.7727C28.3382 15.6448 28.212 15.5303 28.0735 15.4316C27.8678 15.4897 27.382 15.9103 27.0372 16.3309L26.1224 15.6002C26.5142 15.1254 27.4937 14.0497 28.3752 14.3036C28.739 14.4403 29.059 14.6713 29.3018 14.9722C29.4106 15.095 29.5328 15.2055 29.6661 15.3017C29.8882 15.1912 30.0999 15.0615 30.2989 14.9141C30.9238 14.48 31.7054 13.945 32.5125 14.1001C33.1883 14.2338 33.7074 14.8424 34.1658 15.3793C34.3617 15.6157 34.6712 15.9723 34.8025 16.0227C34.9328 16.0352 35.064 16.0352 35.1943 16.0227C35.7408 16.0014 36.6556 15.9665 37.3256 17.1081C37.6433 17.6629 37.8608 18.2683 37.9681 18.897C38.0146 19.2158 38.1139 19.5249 38.262 19.8118C38.401 20.0522 38.5578 20.2731 38.7105 20.4863C39.1023 21.0309 39.4667 21.5445 39.1513 22.0756C39.1317 22.1105 39.1063 22.1512 39.0769 22.1977C38.9348 22.4068 38.8184 22.6319 38.7301 22.8683C38.904 22.9214 39.0805 22.9654 39.2591 23.0001C39.8644 23.1299 40.6186 23.2908 40.9908 23.9207C41.2721 24.4204 41.4405 24.9745 41.4844 25.5449L40.309 25.6263Z" fill="white"/>
<path d="M46.7892 22.7985C46.7892 22.7791 46.1251 20.8216 45.7353 20.0502C45.3846 19.3544 45.8117 18.7633 46.1545 18.2904C46.5169 17.7884 46.7304 17.4531 46.6247 17.0189L46.5933 16.8891C46.2916 15.639 46.1408 15.011 47.2221 14.3094C47.4082 14.1873 47.6139 14.0807 47.7961 13.978C48.4132 13.6446 48.946 13.3558 49.0792 12.6794C49.3965 11.0804 51.3947 10.8091 51.4789 10.7994L51.6278 11.9623C51.618 11.9623 50.3839 12.1561 50.233 12.9139C49.9921 14.1253 49.0577 14.635 48.3603 15.0071C48.182 15.104 48.0135 15.201 47.8686 15.2901C47.561 15.4839 47.5532 15.5518 47.5473 15.5808C47.5693 15.9363 47.6351 16.2878 47.7432 16.6274L47.7746 16.7592C48.0096 17.7399 47.4944 18.4532 47.1163 18.9765C46.9988 19.1393 46.7794 19.4416 46.7892 19.5308C47.2202 20.3855 47.8823 22.3586 47.9117 22.438L46.7892 22.7985Z" fill="white"/>
<path d="M33.774 42.5328C33.6577 42.5322 33.5426 42.5092 33.4351 42.465C33.2969 42.409 33.1752 42.3191 33.0817 42.2039C32.9881 42.0886 32.9257 41.9517 32.9003 41.806L32.6927 40.6295C32.6237 40.2387 32.4591 39.8704 32.2133 39.5569C31.9674 39.2434 31.6478 38.9942 31.2823 38.8309L27.1391 36.98C26.3445 36.6269 25.6342 36.1118 25.0548 35.4682L20.8196 30.776C20.084 29.9578 19.5431 28.9869 19.2368 27.9346L17.4345 21.6744C17.3234 21.2749 17.3665 20.8488 17.5553 20.4789C17.7442 20.1091 18.0654 19.822 18.4564 19.6736C18.8474 19.5251 19.2803 19.5259 19.6707 19.6758C20.0612 19.8256 20.3813 20.1139 20.5688 20.4844L23.0332 25.51C23.2778 25.4155 23.5399 25.3733 23.8022 25.386C24.0645 25.3987 24.3211 25.466 24.5553 25.5836L28.1499 27.3861C28.5811 27.6021 29.0438 27.7499 29.5212 27.8242L31.3018 28.0897C32.0674 28.2006 32.7793 28.5439 33.3391 29.0723L36.5616 32.1346C36.9644 32.5182 37.2588 32.9992 37.4157 33.5301L38.7164 37.8754C38.8186 38.2162 38.8103 38.5801 38.6926 38.916C38.5749 39.2518 38.3537 39.5427 38.0602 39.7477L34.2814 42.3719C34.133 42.4758 33.9558 42.532 33.774 42.5328ZM19.0448 20.7072C18.9655 20.7075 18.8873 20.726 18.8165 20.7611C18.7456 20.7963 18.6839 20.8473 18.6363 20.91C18.5886 20.9727 18.5563 21.0455 18.5419 21.1226C18.5275 21.1998 18.5313 21.2792 18.5531 21.3546L20.3729 27.6129C20.6307 28.4965 21.0852 29.3117 21.7031 29.9988L25.9304 34.693C26.4014 35.2154 26.978 35.634 27.623 35.9218L31.7661 37.7708C32.3062 38.012 32.7784 38.3802 33.1417 38.8433C33.505 39.3065 33.7483 39.8505 33.8504 40.428L33.9797 41.1606L37.3765 38.7902C37.4678 38.7266 37.5368 38.6364 37.574 38.5322C37.6112 38.4281 37.6147 38.315 37.5842 38.2088L36.2834 33.8615C36.1837 33.5298 35.9988 33.2293 35.7467 32.9893L32.5183 29.9193C32.1362 29.5549 31.6486 29.3177 31.1236 29.2409L29.3429 28.9735C28.7382 28.8834 28.1522 28.6976 27.6073 28.423L24.0107 26.6206C23.8548 26.527 23.6678 26.4985 23.4907 26.5414C23.3136 26.5843 23.161 26.6951 23.0665 26.8493C22.9719 27.0035 22.9432 27.1885 22.9865 27.3637C23.0299 27.5389 23.1418 27.6899 23.2976 27.7835L31.0531 33.3363L30.3635 34.2801L22.6159 28.7176C22.2403 28.449 21.9797 28.0511 21.8855 27.6021C21.7913 27.1531 21.8701 26.6855 22.1066 26.2911L19.5071 20.9922C19.4723 20.921 19.4209 20.8589 19.3573 20.8111C19.2936 20.7633 19.2194 20.731 19.1408 20.7169C19.1091 20.7108 19.077 20.7076 19.0448 20.7072Z" fill="white"/>
<path d="M44.1642 42.5328C43.9817 42.5328 43.8037 42.4766 43.6549 42.372L39.884 39.7419C39.5904 39.5369 39.3693 39.246 39.2515 38.9102C39.1338 38.5743 39.1255 38.2104 39.2277 37.8696L40.5284 33.5301C40.6864 33.0055 40.9786 32.5302 41.3767 32.1501L44.5991 29.0898C45.1524 28.5568 45.8596 28.2073 46.6227 28.0897L48.4053 27.8242C48.8828 27.7501 49.3455 27.6022 49.7766 27.3861L53.3732 25.5836C53.607 25.4661 53.8633 25.3987 54.1253 25.386C54.3873 25.3734 54.649 25.4156 54.8933 25.51L57.3596 20.4844C57.5501 20.1184 57.8703 19.8349 58.259 19.6881C58.6478 19.5414 59.0775 19.5418 59.4659 19.6893C59.8544 19.8368 60.1741 20.1209 60.3638 20.4873C60.5535 20.8536 60.5998 21.2763 60.4939 21.6744L58.68 27.9327C58.3736 28.9849 57.8327 29.9559 57.0971 30.774L52.8913 35.4682C52.3121 36.1125 51.6018 36.6283 50.807 36.9819L46.6638 38.8329C46.2983 38.9961 45.9787 39.2454 45.7328 39.5589C45.487 39.8724 45.3224 40.2406 45.2534 40.6315L45.0458 41.8079C45.0204 41.9536 44.958 42.0905 44.8644 42.2058C44.7709 42.3211 44.6492 42.4109 44.511 42.4669C44.401 42.5114 44.2831 42.5338 44.1642 42.5328ZM54.2292 26.5527C54.1216 26.5527 54.0156 26.5779 53.9197 26.6264L50.3251 28.4289C49.7795 28.7034 49.1928 28.8892 48.5875 28.9793L46.8068 29.2468C46.2825 29.3239 45.7956 29.5611 45.414 29.9251L42.1916 32.9874C41.9402 33.2279 41.7554 33.5282 41.6548 33.8596L40.3541 38.201C40.3241 38.3073 40.328 38.4202 40.3651 38.5242C40.4023 38.6282 40.4709 38.7184 40.5617 38.7825L43.9585 41.1529L44.0878 40.4222C44.1897 39.8443 44.4328 39.2999 44.7961 38.8364C45.1594 38.3729 45.6318 38.0044 46.1721 37.763L50.3153 35.914C50.9603 35.6263 51.5369 35.2076 52.0078 34.6852L56.2411 29.991C56.8589 29.3039 57.3134 28.4887 57.5712 27.6051L59.3852 21.3468C59.4195 21.2251 59.4068 21.0951 59.3494 20.9822C59.292 20.8692 59.1941 20.7816 59.0748 20.7362C58.9556 20.6909 58.8235 20.6913 58.7045 20.7372C58.5854 20.783 58.488 20.8712 58.4312 20.9844L55.8297 26.2911C56.0651 26.6859 56.1431 27.1535 56.0486 27.6022C55.954 28.051 55.6937 28.4487 55.3184 28.7176L47.5708 34.2802L46.8852 33.3363L54.6328 27.7718C54.7494 27.6872 54.8361 27.5683 54.8805 27.432C54.9249 27.2958 54.9247 27.1492 54.88 27.0131C54.8353 26.877 54.7483 26.7583 54.6315 26.6739C54.5147 26.5895 54.3739 26.5437 54.2292 26.543V26.5527Z" fill="white"/>
<path d="M14.7978 78.7666C14.7966 78.837 14.7854 78.9068 14.7645 78.974C14.1553 80.7862 13.503 82.5673 12.7879 84.364C12.7331 84.5036 12.5372 84.6974 12.3942 84.6974C12.0024 84.6974 12.024 83.9415 12.0024 83.4957C12.0024 83.424 12.0984 83.3445 12.1474 83.2573L12.3237 83.4415C12.3648 83.4957 12.4275 83.5519 12.4765 83.6081C12.689 83.1875 12.8615 82.7483 12.9917 82.296C12.6214 81.9859 12.2845 81.1661 12.1787 80.9393C11.9708 80.5015 11.7992 80.0478 11.6655 79.5826C11.6322 79.4799 11.5205 79.0011 11.3991 79.0011C11.352 79.0011 11.2874 79.1039 11.2384 79.1039C11.1268 79.1039 11.0543 78.819 11.0543 78.5631C11.0543 78.158 11.2874 78.0379 11.3912 78.0379C11.7693 78.0379 12.0181 79.0961 12.0906 79.3112C12.163 79.5264 12.927 81.482 13.2659 81.482L13.8379 79.5806C13.8379 79.3345 14.1337 78.6988 14.3668 78.6116C14.4294 78.5885 14.496 78.5779 14.5627 78.5806C14.6309 78.5798 14.6982 78.5958 14.7586 78.6271C14.7748 78.6463 14.7866 78.6686 14.7934 78.6927C14.8001 78.7167 14.8016 78.7419 14.7978 78.7666Z" fill="white"/>
<path d="M15.1916 81.6855C15.2508 81.6822 15.309 81.7018 15.3539 81.7401C15.3988 81.7784 15.427 81.8325 15.4325 81.8909C15.4342 81.9367 15.4204 81.9817 15.3933 82.0188C15.0709 82.4464 14.8939 82.9642 14.8879 83.4977C14.9147 83.6246 14.9638 83.746 15.0329 83.8562C15.1367 83.7845 15.2895 83.7361 15.3228 83.6488C15.5353 83.2184 15.6605 82.7509 15.6911 82.2727C15.6911 82.1061 15.6108 81.9316 15.6108 81.7494C15.6108 81.6215 15.6597 81.6215 15.7479 81.5343C15.9732 81.7572 15.9967 82.1623 15.9967 82.4646C15.9967 83.2399 15.5304 84.2303 14.9839 84.2303C14.6313 84.2303 14.3962 83.8427 14.3962 83.1798C14.4276 82.8057 14.7018 81.6855 15.1916 81.6855Z" fill="white"/>
<path d="M16.6862 81.67C16.7117 81.5421 16.7744 81.4471 16.9037 81.4471C17.033 81.4471 17.0996 81.5266 17.0996 81.5808C17.0996 81.6351 17.076 81.701 17.076 81.7572C16.9957 82.2495 16.9154 82.7592 16.8508 83.2515C16.871 83.3509 16.9039 83.4473 16.9487 83.5384C17.0192 83.4744 17.1172 83.4337 17.1564 83.3542C17.4776 82.8135 17.7911 82.2495 18.0967 81.7087C18.1535 81.5983 18.2103 81.5014 18.3141 81.5014C18.3919 81.5014 18.4665 81.5317 18.5219 81.5857C18.5772 81.6398 18.6089 81.7132 18.6099 81.7901C18.6079 81.8248 18.6027 81.8592 18.5942 81.8929C18.4571 82.4588 18.32 83.0228 18.2024 83.5868C18.188 83.6385 18.182 83.6922 18.1848 83.7457C18.2061 83.8985 18.2362 84.0499 18.2749 84.1993C18.2749 84.3272 18.0653 84.4706 17.9282 84.4706C17.6794 84.4706 17.5912 83.8892 17.5031 83.643C17.1407 83.802 17.0192 84.1121 16.7783 84.1121C16.6431 84.1121 16.5217 84.0171 16.4649 83.8252C16.4335 83.707 16.4414 83.5636 16.4022 83.4279C16.4864 82.8464 16.5824 82.2495 16.6862 81.67Z" fill="white"/>
<path d="M21.0272 81.7649C20.9058 81.7649 20.8431 81.5266 20.7451 81.5266C20.61 81.5266 20.1183 82.3774 19.9341 82.7418C19.7382 83.1488 19.6129 83.5849 19.4366 84.0074C19.3151 84.2942 19.1858 84.3175 19.0095 84.4202C18.9527 84.3175 18.8489 84.1973 18.8489 84.0946C18.8802 83.6566 18.9527 83.2283 19.0095 82.798C19.0585 82.4104 19.0409 81.2785 19.5561 81.2785C19.7735 81.2785 19.8695 81.637 19.9185 81.8909C20.015 81.807 20.106 81.717 20.1908 81.6215C20.4239 81.3347 20.6727 80.8269 21.0272 80.8269C21.1957 80.8269 21.1879 80.9936 21.2839 81.1292C21.2114 81.4219 21.1722 81.7649 21.0272 81.7649Z" fill="white"/>
<path d="M25.6327 81.3909C25.6327 82.0673 25.2879 82.9414 25.045 83.6256C24.9569 83.9279 24.6042 84.302 24.379 84.302C24.0087 84.302 23.8246 83.5539 23.8246 83.1391C23.8246 82.9879 23.8403 82.829 23.8559 82.6604C23.8478 82.5853 23.8321 82.5113 23.8089 82.4394C23.7286 82.4782 23.613 82.4937 23.5836 82.5654C23.278 82.9879 22.9078 83.8058 22.5709 83.8058C22.5651 83.8072 22.559 83.8072 22.5532 83.8058C22.4758 83.7568 22.4139 83.6871 22.3747 83.6048C22.3356 83.5225 22.3207 83.431 22.3319 83.3407C22.3162 82.9046 22.3789 82.4743 22.3789 82.0363C22.3789 81.5983 22.467 81.4548 22.757 81.4316C22.9666 81.4316 23.0312 81.5828 23.0312 81.7591C23.0312 81.9355 22.9901 82.0847 22.9901 82.2437C23.0007 82.3042 23.0198 82.3629 23.0469 82.4181C23.0959 82.3948 23.1664 82.3949 23.1997 82.3619C23.4798 82.0692 23.8657 81.4645 24.1321 81.4645C24.1662 81.4632 24.2002 81.4688 24.232 81.4811C24.2637 81.4934 24.2926 81.512 24.3167 81.5359C24.3408 81.5597 24.3596 81.5883 24.372 81.6197C24.3845 81.6511 24.3901 81.6847 24.3888 81.7184C24.3829 81.8263 24.3638 81.933 24.332 82.0363C24.2472 82.3665 24.2018 82.7054 24.1968 83.0461C24.1759 83.3186 24.2446 83.5906 24.3927 83.8213C24.473 83.7496 24.618 83.6876 24.6493 83.6004C24.9627 82.6526 25.237 81.6835 25.5347 80.728C25.5582 80.728 25.5818 80.728 25.6072 80.728C25.6092 80.9529 25.6327 81.1758 25.6327 81.3909Z" fill="white"/>
<path d="M26.7493 81.6855C26.8085 81.6822 26.8667 81.7018 26.9116 81.7401C26.9566 81.7784 26.9847 81.8325 26.9902 81.8909C26.9919 81.9367 26.9782 81.9817 26.9511 82.0188C26.6279 82.4462 26.4502 82.964 26.4437 83.4977C26.4715 83.6243 26.5205 83.7455 26.5887 83.8562C26.6944 83.7845 26.8472 83.7361 26.8786 83.6488C27.0917 83.2185 27.2175 82.751 27.2488 82.2727C27.2488 82.1061 27.1685 81.9316 27.1685 81.7494C27.1685 81.6215 27.2155 81.6215 27.3037 81.5343C27.5289 81.7572 27.5544 82.1623 27.5544 82.4646C27.5544 83.2399 27.0882 84.2303 26.5416 84.2303C26.1871 84.2303 25.954 83.8427 25.954 83.1798C25.9873 82.8057 26.2596 81.6855 26.7493 81.6855Z" fill="white"/>
<path d="M30.054 81.7649C29.9326 81.7649 29.8679 81.5266 29.7719 81.5266C29.6348 81.5266 29.1451 82.3774 28.9609 82.7418C28.765 83.1488 28.6397 83.5849 28.4614 84.0074C28.3419 84.2942 28.2126 84.3175 28.0363 84.4202C27.9795 84.3175 27.8757 84.1973 27.8757 84.0946C27.907 83.6566 27.9795 83.2283 28.0363 82.798C28.0833 82.4104 28.0676 81.2785 28.5828 81.2785C28.8003 81.2785 28.8963 81.637 28.9433 81.8909C29.0409 81.8075 29.1326 81.7175 29.2175 81.6215C29.4507 81.3347 29.6994 80.8269 30.054 80.8269C30.2225 80.8269 30.2146 80.9936 30.3106 81.1292C30.2381 81.4219 30.199 81.7649 30.054 81.7649Z" fill="white"/>
<path d="M30.818 79.6252C30.8807 79.3151 30.9375 78.6872 31.2352 78.6872C31.4449 78.7104 31.4919 78.91 31.4919 79.1329C31.2509 80.3811 30.9943 81.5983 30.7925 82.8464C30.7807 82.8962 30.7729 82.9467 30.769 82.9976C30.769 83.0616 30.7847 83.1003 30.8572 83.1003C30.8986 83.0986 30.9395 83.0907 30.9786 83.0771C30.9943 83.0771 31.1138 83.1643 31.1138 83.2205C31.1138 83.5694 30.7612 84.2613 30.3831 84.2613C30.1657 84.2613 30.1089 83.9919 30.0697 83.7205C30.2146 82.3445 30.5359 80.9781 30.818 79.6252Z" fill="white"/>
<path d="M31.6701 82.9899C31.6701 82.2728 31.9503 81.263 32.4655 81.263C32.6339 81.263 32.7711 81.4568 32.9141 81.6215C32.967 81.5712 33.0107 81.5122 33.0433 81.4471C33.2921 80.7552 33.5331 80.1505 33.8641 79.2512C33.8793 79.1939 33.9138 79.1434 33.9619 79.1082C34.01 79.0729 34.0688 79.055 34.1286 79.0574C34.3539 79.0574 34.4185 79.1523 34.4185 79.2512C34.415 79.3099 34.4065 79.3683 34.3931 79.4256C34.2403 80.0865 34.2168 80.3327 34.064 80.9858C33.9112 81.639 33.7192 82.2262 33.5585 82.8464C33.3901 83.5132 33.2686 84.7148 32.8024 84.7148C32.6653 84.7148 32.585 84.5714 32.585 84.3272C32.585 84.1605 32.6104 83.9841 32.6261 83.8175C32.6237 83.7268 32.6126 83.6366 32.5928 83.5481C32.5024 83.5763 32.4162 83.616 32.3362 83.6663C32.2605 83.7611 32.1513 83.8241 32.0306 83.8427C31.8053 83.8427 31.6525 83.455 31.6525 83.2922C31.6525 83.2128 31.6701 83.1507 31.6701 83.11V82.9899ZM32.0619 83.3775C32.144 83.3662 32.2213 83.3327 32.2852 83.2806C32.5082 82.9191 32.6764 82.5274 32.7848 82.1177C32.7848 81.9588 32.5027 81.7301 32.393 81.7301C32.2402 81.7301 32.0462 82.7166 31.9424 83.1139C31.9914 83.2283 32.0149 83.3542 32.0639 83.3717L32.0619 83.3775Z" fill="white"/>
<path d="M35.7604 82.7592C35.8329 82.36 35.7447 81.5421 36.2834 81.5421C36.3261 81.5426 36.3683 81.5514 36.4076 81.568C36.4468 81.5847 36.4824 81.6088 36.5122 81.639C36.5421 81.6693 36.5656 81.705 36.5814 81.7443C36.5973 81.7835 36.6052 81.8254 36.6047 81.8677V81.9084C36.4441 82.608 36.2658 83.3155 36.0895 84.0074C36.0503 84.1586 35.872 84.2458 35.7604 84.302C35.6879 84.1973 35.5645 84.0617 35.5645 83.9434V83.8872C35.5622 83.8829 35.5589 83.8792 35.5547 83.8765C35.5506 83.8738 35.5459 83.8721 35.541 83.8717C35.6233 83.4899 35.6879 83.1333 35.7604 82.7592ZM36.6321 80.0458C36.7849 80.0458 36.8966 80.1098 36.8966 80.2396C36.8966 80.2067 36.7457 80.6602 36.544 80.6602C36.495 80.6602 36.3481 80.4935 36.2952 80.4548C36.2991 80.1505 36.4362 80.0458 36.6321 80.0458Z" fill="white"/>
<path d="M37.0631 82.265C37.0625 82.22 37.0762 82.1759 37.1023 82.139C37.3459 81.7299 37.6114 81.334 37.8976 80.9529C37.9294 80.922 37.9676 80.8982 38.0095 80.8832C38.0514 80.8681 38.0961 80.8621 38.1405 80.8656C38.2678 80.8656 38.356 80.9141 38.356 81.168C38.356 81.4219 38.2678 81.7727 38.1229 81.7727C38.0426 81.7727 37.9387 81.5653 37.8584 81.5653C37.737 81.5653 37.6743 81.9316 37.6331 82.1061C37.7776 82.1459 37.9261 82.17 38.0759 82.1778H38.1562C38.6146 82.1778 38.8947 82.4239 38.8947 82.798C38.8947 83.4744 38.211 84.0946 37.7193 84.4919C37.4137 84.7381 37.1003 84.9532 36.7066 84.9532C36.6593 84.9575 36.6116 84.9521 36.5665 84.9374C36.5214 84.9227 36.4799 84.8989 36.4444 84.8677C36.409 84.8364 36.3804 84.7983 36.3605 84.7557C36.3405 84.713 36.3296 84.6668 36.3285 84.6199C36.3285 84.2322 36.8672 83.7612 37.2139 83.5461C37.2355 83.5326 37.2612 83.5271 37.2864 83.5306H37.3746C37.3796 83.5882 37.368 83.6459 37.3413 83.6973C37.2766 83.8078 37.0611 84.0636 37.0611 84.1741C37.0611 84.2845 37.0846 84.269 37.165 84.269C37.2766 84.269 37.6233 83.9744 37.7193 83.864C37.9681 83.5771 38.3717 83.1333 38.3717 82.8212C38.3717 82.6274 38.1758 82.5286 37.9211 82.5286C37.88 82.5286 37.8329 82.5518 37.7918 82.5518C37.5371 82.5441 37.0631 82.5441 37.0631 82.265Z" fill="white"/>
<path d="M40.5598 82.7592C40.6323 82.36 40.5422 81.5421 41.0809 81.5421C41.1236 81.5423 41.166 81.551 41.2053 81.5675C41.2447 81.5841 41.2804 81.6082 41.3102 81.6385C41.3401 81.6688 41.3636 81.7046 41.3794 81.744C41.3952 81.7833 41.4029 81.8254 41.4021 81.8677V81.9084C41.2415 82.608 41.0652 83.3155 40.8889 84.0074C40.8478 84.1586 40.6714 84.2458 40.5598 84.302C40.4873 84.1973 40.3639 84.0617 40.3639 83.9434V83.8872C40.3616 83.8829 40.3583 83.8792 40.3541 83.8765C40.35 83.8738 40.3453 83.8721 40.3404 83.8717C40.4227 83.4899 40.4873 83.1333 40.5598 82.7592ZM41.4276 80.0458C41.5804 80.0458 41.6921 80.1098 41.6921 80.2396C41.6921 80.2067 41.5393 80.6602 41.3394 80.6602C41.2905 80.6602 41.1436 80.4935 41.0887 80.4548C41.0965 80.1505 41.2258 80.0458 41.4276 80.0458Z" fill="white"/>
<path d="M43.0829 82.5654C42.8263 83.0189 42.4952 83.8853 42.0936 83.8853C41.9095 83.8853 41.8527 83.7264 41.8527 83.5752C41.8527 83.1469 41.9095 82.6933 41.9408 82.2631L41.9898 81.8657C41.9934 81.791 42.0267 81.7207 42.0825 81.6702C42.1383 81.6197 42.212 81.5932 42.2876 81.5963C42.4835 81.5963 42.5442 81.7378 42.5442 81.889C42.5442 82.0828 42.505 82.2766 42.505 82.4704C42.5143 82.5402 42.5274 82.6094 42.5442 82.6778C42.6114 82.6412 42.6712 82.5926 42.7205 82.5344L43.0339 82.0014C43.161 81.8334 43.3481 81.7197 43.557 81.6835C43.7176 81.6835 43.7529 81.8347 43.7529 81.9607C43.7519 82.0257 43.746 82.0904 43.7352 82.1545C43.6392 82.9182 43.5393 83.674 43.4394 84.4357C43.4197 84.5132 43.3806 84.5845 43.3258 84.6431C43.2863 84.5684 43.2591 84.4879 43.2455 84.4047C43.2601 83.6679 43.3137 82.9323 43.4061 82.201C43.3826 82.201 43.3748 82.1855 43.3493 82.17C43.2525 82.2964 43.1635 82.4284 43.0829 82.5654Z" fill="white"/>
<path d="M44.6109 87.9922C43.9037 87.9922 43.4923 87.5639 43.0751 87.1181C43.0339 87.0697 43.0437 86.9747 43.0339 86.8952C43.1045 86.8949 43.1748 86.9027 43.2435 86.9185C43.7411 87.1123 44.2974 87.3565 44.6833 87.3565C45.1574 87.3565 45.4865 87.0871 45.7118 86.4979C45.9841 85.7905 46.1369 85.0579 46.3465 84.3349C46.4357 84.0913 46.4923 83.8372 46.515 83.5791C46.5057 83.5093 46.4926 83.4401 46.4758 83.3717C46.2329 83.4763 46.178 83.5791 46.0095 83.5791C45.6393 83.5791 45.51 83.1507 45.4532 82.577L45.3572 81.5828V81.48C45.3572 81.3211 45.5022 81.2087 45.5747 81.1215C45.655 81.2087 45.7843 81.3056 45.7921 81.4083C45.8313 81.8619 45.847 82.3231 45.8881 82.7767C45.9166 82.8916 45.9628 83.0014 46.0252 83.1023C46.1212 83.0151 46.2505 82.9356 46.2975 82.8309C46.4425 82.4976 46.5796 82.1565 46.7089 81.7979C46.7287 81.7217 46.7748 81.6547 46.8391 81.6083C46.9035 81.562 46.9821 81.5393 47.0615 81.544C47.2946 81.544 47.3671 81.7378 47.3671 81.9181C47.3024 82.4588 47.2868 82.9996 47.1829 83.5325C46.9871 84.5016 46.7716 85.4804 46.4836 86.4185C46.274 87.1104 45.6315 88.0097 44.9713 88.0097C44.9053 88.0086 44.8395 88.0002 44.7754 87.9845C44.7208 87.9909 44.6658 87.9935 44.6109 87.9922Z" fill="white"/>
<path d="M48.4837 81.6855C48.5429 81.6822 48.6011 81.7018 48.646 81.7401C48.691 81.7784 48.7191 81.8325 48.7246 81.8909C48.7263 81.9367 48.7126 81.9817 48.6855 82.0188C48.3623 82.4462 48.1846 82.964 48.1781 83.4977C48.2059 83.6243 48.2549 83.7455 48.323 83.8562C48.4288 83.7845 48.5816 83.7361 48.613 83.6488C48.8261 83.2185 48.9519 82.751 48.9832 82.2727C48.9832 82.1061 48.9029 81.9316 48.9029 81.7494C48.9029 81.6215 48.9499 81.6215 49.0381 81.5343C49.2633 81.7572 49.2888 82.1623 49.2888 82.4646C49.2888 83.2399 48.8226 84.2303 48.276 84.2303C47.9215 84.2303 47.6884 83.8427 47.6884 83.1798C47.7197 82.8057 47.9939 81.6855 48.4837 81.6855Z" fill="white"/>
<path d="M49.9784 81.67C50.0038 81.5421 50.0685 81.4471 50.1958 81.4471C50.3231 81.4471 50.3917 81.5266 50.3917 81.5808C50.3917 81.6351 50.3662 81.701 50.3662 81.7572C50.2859 82.2495 50.2056 82.7592 50.1429 83.2515C50.1623 83.3508 50.1946 83.4472 50.2389 83.5384C50.3114 83.4744 50.4074 83.4337 50.4465 83.3542C50.7698 82.8135 51.0832 82.2495 51.3868 81.7087C51.4436 81.5983 51.5004 81.5014 51.6043 81.5014C51.6429 81.5009 51.6812 81.5079 51.717 81.522C51.7529 81.5361 51.7856 81.5571 51.8132 81.5838C51.8409 81.6104 51.8629 81.6422 51.8782 81.6772C51.8934 81.7123 51.9015 81.75 51.902 81.7882C51.9001 81.8229 51.8948 81.8573 51.8864 81.8909C51.7492 82.4569 51.6121 83.0209 51.4946 83.5849C51.4817 83.6368 51.4764 83.6904 51.4789 83.7438C51.4997 83.8965 51.5292 84.0479 51.567 84.1973C51.567 84.3253 51.3574 84.4687 51.2203 84.4687C50.9715 84.4687 50.8834 83.8872 50.7952 83.6411C50.4328 83.8 50.3133 84.1101 50.0724 84.1101C49.9353 84.1101 49.8138 84.0151 49.759 83.8233C49.7256 83.705 49.7335 83.5616 49.6943 83.426C49.7785 82.8464 49.8745 82.2495 49.9784 81.67Z" fill="white"/>
<path d="M54.3194 81.7649C54.1999 81.7649 54.1352 81.5266 54.0392 81.5266C53.9021 81.5266 53.4104 82.3774 53.2263 82.7418C53.0304 83.1488 52.905 83.5849 52.7287 84.0074C52.6072 84.2942 52.4799 84.3175 52.3017 84.4202C52.2468 84.3175 52.141 84.1973 52.141 84.0946C52.1743 83.6566 52.2468 83.2283 52.3017 82.798C52.3506 82.4104 52.335 81.2785 52.8482 81.2785C53.0656 81.2785 53.1616 81.637 53.2106 81.8909C53.3071 81.807 53.3981 81.717 53.4829 81.6215C53.716 81.3347 53.9667 80.8269 54.3194 80.8269C54.4878 80.8269 54.48 80.9936 54.576 81.1292C54.5055 81.4219 54.4584 81.7649 54.3194 81.7649Z" fill="white"/>
<path d="M57.4537 83.5054C57.4406 83.5739 57.4328 83.6432 57.4302 83.7128C57.4302 83.895 57.7749 83.7845 57.7749 83.9841V83.9996C57.6221 84.2303 57.3831 84.6916 57.197 84.6916C57.0364 84.6916 56.9639 84.5481 56.9639 84.3253C56.964 84.2266 56.9718 84.1281 56.9874 84.0307C57.0756 83.4589 57.1833 82.893 57.246 82.3212C57.246 82.2979 57.246 82.2727 57.246 82.2417C57.246 82.1138 57.197 81.9878 57.1814 81.8444C57.0574 81.9404 56.9444 82.0496 56.8444 82.17C56.5388 82.6391 56.2411 83.1158 55.9355 83.5946C55.9173 83.6217 55.8936 83.6448 55.866 83.6625C55.8384 83.6802 55.8073 83.692 55.7748 83.6973C55.579 83.6973 55.6221 83.3097 55.6221 83.0441C55.6191 82.8496 55.6322 82.6551 55.6612 82.4627C55.8571 81.2765 56.1275 80.1001 56.3449 78.9159C56.4095 78.6775 56.3704 78.2084 56.6113 78.2084C56.6877 78.2287 56.7561 78.2715 56.8075 78.331C56.8589 78.3905 56.8909 78.464 56.8993 78.5418C56.8984 78.59 56.8931 78.638 56.8836 78.6852C56.7876 79.7667 56.5388 80.7687 56.3449 81.7863V81.827C56.3472 81.9044 56.3558 81.9815 56.3704 82.0576C56.4565 82.0189 56.5348 81.965 56.6015 81.8987C56.8268 81.6913 56.9326 81.3967 57.2774 81.3967C57.4302 81.3967 57.6476 81.6603 57.6476 81.8987C57.6476 81.9781 57.6319 82.0654 57.6319 82.1448C57.6448 82.1479 57.6582 82.1479 57.6711 82.1448C57.6065 82.608 57.5418 83.0538 57.4537 83.5054Z" fill="white"/>
<path d="M59.9062 82.0983C59.9045 82.1464 59.8993 82.1944 59.8906 82.2417C59.8181 82.703 59.7534 83.1721 59.6947 83.6333C59.6633 83.9202 59.6222 84.2458 59.4302 84.2458C59.3577 84.2458 59.2931 84.1896 59.2206 84.0946C58.9953 83.833 59.1403 83.5946 59.0032 83.5946C58.9562 83.5946 58.6819 83.833 58.4155 83.833C58.3596 83.8309 58.3047 83.8174 58.2542 83.7935C58.2038 83.7696 58.1588 83.7358 58.1221 83.694C58.0854 83.6522 58.0577 83.6034 58.0408 83.5507C58.0239 83.4979 58.018 83.4423 58.0237 83.3872C58.0339 83.0959 58.1095 82.8105 58.245 82.5517C58.3805 82.2928 58.5726 82.0671 58.8073 81.8909C58.9958 81.7861 59.1922 81.696 59.395 81.6215C59.7476 81.6603 59.9062 81.8192 59.9062 82.0983ZM59.1834 82.1138C59.1165 82.1098 59.0505 82.1297 58.9973 82.17C58.7877 82.4569 58.4272 82.9337 58.4272 83.1565C58.4272 83.1953 58.4664 83.3387 58.5644 83.3387C58.821 83.3387 59.1521 82.6875 59.391 82.3135C59.2951 82.1623 59.2872 82.1138 59.1834 82.1138Z" fill="white"/>
<path d="M61.538 82.5654C61.2795 83.0189 60.9504 83.8853 60.5488 83.8853C60.3646 83.8853 60.3078 83.7264 60.3078 83.5752C60.3078 83.1469 60.3646 82.6933 60.396 82.2631L60.445 81.8657C60.4485 81.791 60.4818 81.7207 60.5376 81.6702C60.5934 81.6197 60.6672 81.5932 60.7427 81.5963C60.9386 81.5963 60.9993 81.7378 60.9993 81.889C60.9993 82.0828 60.9582 82.2766 60.9582 82.4704C60.9681 82.5402 60.9819 82.6095 60.9993 82.6778C61.0666 82.6412 61.1264 82.5926 61.1756 82.5344L61.4891 82.0014C61.6161 81.8334 61.8032 81.7197 62.0121 81.6835C62.1727 81.6835 62.208 81.8347 62.208 81.9607C62.2068 82.0256 62.2015 82.0903 62.1923 82.1545C62.0963 82.9182 61.9964 83.674 61.8946 84.4357C61.8757 84.5131 61.8372 84.5844 61.7829 84.6431C61.7434 84.5684 61.7163 84.4879 61.7026 84.4047C61.7162 83.6678 61.7698 82.9322 61.8632 82.201C61.8397 82.201 61.8319 82.1855 61.8064 82.17C61.7089 82.2963 61.6193 82.4283 61.538 82.5654Z" fill="white"/>
<path d="M62.5508 82.9899C62.5508 82.2727 62.8309 81.263 63.3461 81.263C63.5146 81.263 63.6517 81.4568 63.7967 81.6215C63.8485 81.5706 63.8915 81.5117 63.924 81.4471C64.1748 80.7552 64.4157 80.1505 64.7448 79.2512C64.7606 79.1942 64.7952 79.1442 64.8432 79.109C64.8911 79.0739 64.9496 79.0557 65.0093 79.0573C65.2346 79.0573 65.2992 79.1523 65.2992 79.2512C65.2954 79.3098 65.2875 79.368 65.2757 79.4256C65.1229 80.0865 65.0974 80.3327 64.9466 80.9858C64.7958 81.639 64.5999 82.2262 64.4392 82.8464C64.2708 83.5132 64.1493 84.7148 63.6831 84.7148C63.5479 84.7148 63.4676 84.5714 63.4676 84.3272C63.4676 84.1605 63.4911 83.9841 63.5068 83.8175C63.5029 83.7222 63.4905 83.6275 63.4696 83.5345C63.3786 83.5627 63.2916 83.6024 63.211 83.6527C63.1353 83.7476 63.0261 83.8106 62.9054 83.8291C62.6821 83.8291 62.5293 83.4415 62.5293 83.2786C62.5293 83.1992 62.5449 83.1372 62.5449 83.0965L62.5508 82.9899ZM62.9426 83.3775C63.0253 83.3663 63.1032 83.3327 63.1679 83.2806C63.3901 82.919 63.5577 82.5272 63.6654 82.1177C63.6654 81.9588 63.3853 81.7301 63.2737 81.7301C63.1209 81.7301 62.9289 82.7166 62.8231 83.1139C62.8819 83.2283 62.8956 83.3542 62.9446 83.3717L62.9426 83.3775Z" fill="white"/>
<path d="M65.307 82.265C65.3063 82.2197 65.3208 82.1754 65.3482 82.139C65.5911 81.7295 65.8566 81.3335 66.1435 80.9529C66.175 80.922 66.2128 80.8983 66.2543 80.8832C66.2959 80.8682 66.3403 80.8622 66.3845 80.8656C66.5137 80.8656 66.6019 80.9141 66.6019 81.168C66.6019 81.4219 66.5137 81.7727 66.3688 81.7727C66.2885 81.7727 66.1827 81.5653 66.1024 81.5653C65.9829 81.5653 65.9182 81.9316 65.879 82.1061C66.0228 82.1461 66.1706 82.1701 66.3198 82.1778H66.408C66.8664 82.1778 67.1484 82.4239 67.1484 82.798C67.1484 83.4744 66.4648 84.0946 65.9731 84.4919C65.6675 84.7381 65.354 84.9532 64.9603 84.9532C64.913 84.9575 64.8654 84.9521 64.8203 84.9374C64.7752 84.9227 64.7336 84.8989 64.6982 84.8677C64.6627 84.8364 64.6341 84.7983 64.6142 84.7557C64.5943 84.713 64.5834 84.6668 64.5822 84.6199C64.5822 84.2322 65.1209 83.7612 65.4657 83.5461C65.4874 83.5329 65.513 83.5275 65.5382 83.5306H65.6244C65.6291 83.5879 65.6183 83.6455 65.593 83.6973C65.5284 83.8078 65.311 84.0636 65.311 84.1741C65.311 84.2845 65.3364 84.269 65.4167 84.269C65.5284 84.269 65.8732 83.9744 65.9711 83.864C66.2199 83.5771 66.6215 83.1333 66.6215 82.8212C66.6215 82.6274 66.4256 82.5286 66.1709 82.5286C66.1318 82.5286 66.0828 82.5518 66.0436 82.5518C65.7811 82.5441 65.307 82.5441 65.307 82.265Z" fill="white"/>
<path d="M8.98173 63.2013L8.83089 63.0075C8.69572 62.835 8.4391 62.7497 8.04732 62.7497H0.211568L0.0156746 62.1586L0.407462 62.0481C0.8541 61.9124 1.15512 61.7438 1.31053 61.5422C1.46594 61.3407 1.54365 60.9685 1.54365 60.4259V53.2101C1.56145 52.6084 1.49553 52.0071 1.34775 51.4231C1.20753 50.9605 0.990379 50.5243 0.70522 50.1323L0.462312 49.799L0.70522 49.5044H6.40573C7.47531 49.5044 8.18379 49.3751 8.53117 49.1167L8.86615 48.8764L9.16391 49.1167V52.398L8.53117 52.619L8.41951 52.1945C8.34204 51.8388 8.20991 51.497 8.02773 51.1809C7.89259 50.9576 7.68566 50.7856 7.44004 50.6924C7.10277 50.5866 6.7495 50.5394 6.39593 50.5529H4.56433C4.08047 50.5529 3.76116 50.644 3.60445 50.8204C3.44773 50.9967 3.37329 51.3766 3.37329 51.9542V55.4952H5.73969C6.00944 55.4966 6.2751 55.4299 6.51151 55.3014C6.78907 55.1388 7.02767 54.9186 7.21085 54.656L7.35973 54.4622L7.73193 54.656V57.8074L7.09919 58.0303L6.98753 57.6058C6.87522 57.1756 6.67345 56.8926 6.38222 56.7569C6.09099 56.6213 5.61562 56.5567 4.95611 56.5631H3.37329V60.3057C3.37329 60.8697 3.44969 61.2457 3.60445 61.4298C3.7592 61.614 4.08047 61.705 4.56433 61.705H6.57811C6.93092 61.7191 7.28353 61.6725 7.62027 61.5674C7.8774 61.4712 8.09229 61.2887 8.22754 61.0519C8.40681 60.7379 8.5388 60.3997 8.61932 60.0479L8.73098 59.6235L9.36568 59.8444V62.9978L8.98173 63.2013Z" fill="white"/>
<path d="M15.2973 62.9997C14.4015 62.9997 13.7028 62.7323 13.2013 62.1973C12.6998 61.6624 12.4484 60.9098 12.4471 59.9394V55.3305C12.4471 55.0611 12.3217 54.9254 12.0729 54.9254H11.2541L11.0856 54.4447C11.4265 54.1133 11.8246 53.8448 12.261 53.652C12.6598 53.4602 13.095 53.3539 13.5382 53.34C13.6159 53.3381 13.6932 53.3519 13.7653 53.3804C13.8375 53.409 13.903 53.4518 13.958 53.5061C14.0129 53.5605 14.0561 53.6253 14.085 53.6967C14.1139 53.7681 14.1278 53.8446 14.1259 53.9214V59.5072C14.1259 61.0073 14.7221 61.7567 15.9144 61.7554C16.3057 61.7653 16.6926 61.6715 17.0349 61.4837C17.3773 61.296 17.6627 61.0211 17.8616 60.6875C18.3278 59.9743 18.5609 58.991 18.5609 57.7376C18.5609 57.1342 18.5453 56.6174 18.5139 56.1871C18.4911 55.8032 18.4254 55.4229 18.318 55.0533C18.2154 54.7219 18.0513 54.4124 17.8342 54.1404L17.6304 53.8555L17.8538 53.5784L20.1261 53.34V61.1197C20.1261 61.4996 20.3063 61.6895 20.6668 61.6895C20.9981 61.6738 21.3167 61.5581 21.5796 61.3581L21.9342 61.8388C21.6558 62.1752 21.3179 62.4589 20.9371 62.6761C20.6207 62.8723 20.2582 62.9838 19.8852 62.9997C18.9279 62.9997 18.4493 62.4099 18.4493 61.2302C18.1722 61.7763 17.7335 62.2259 17.1916 62.5191C16.6145 62.8428 15.9607 63.0087 15.2973 62.9997Z" fill="white"/>
<path d="M23.4387 62.742L23.2428 62.1605L23.6346 62.0675C23.7642 62.051 23.8884 62.006 23.9982 61.936C24.108 61.8659 24.2006 61.7724 24.2693 61.6624C24.3867 61.3532 24.4374 61.0231 24.4181 60.6933V55.5146C24.4181 55.2452 24.2928 55.1095 24.046 55.1095H23.2252L23.0567 54.6288C23.4266 54.3039 23.8448 54.0372 24.2967 53.8381C24.6767 53.6499 25.0925 53.5429 25.5171 53.5241C25.5949 53.5217 25.6725 53.5351 25.7449 53.5634C25.8173 53.5918 25.883 53.6345 25.9381 53.689C25.9932 53.7435 26.0364 53.8086 26.065 53.8802C26.0937 53.9518 26.1072 54.0285 26.1048 54.1055V56.0786H26.2165C26.3816 55.3486 26.717 54.667 27.1959 54.0881C27.6373 53.5842 28.1186 53.3322 28.6397 53.3322C28.8767 53.3255 29.1127 53.3661 29.3335 53.4517C29.5543 53.5373 29.7554 53.6661 29.9247 53.8303C30.104 54.0121 30.243 54.2289 30.3327 54.4668C30.4225 54.7048 30.461 54.9587 30.4458 55.2122C30.4509 55.435 30.4077 55.6563 30.3191 55.8612C30.2306 56.0662 30.0988 56.25 29.9326 56.4003C29.5756 56.7255 29.103 56.8976 28.6181 56.879C28.383 56.879 28.2655 56.8112 28.2655 56.6755C28.282 56.5789 28.327 56.4892 28.3948 56.4178C28.4961 56.2855 28.5834 56.1433 28.6553 55.9933C28.7447 55.8124 28.7897 55.6132 28.7866 55.4119C28.7968 55.221 28.7339 55.0334 28.6103 54.8866C28.5559 54.8246 28.4884 54.775 28.4126 54.7415C28.3368 54.7081 28.2545 54.6914 28.1715 54.6928C27.9103 54.6928 27.6184 54.8556 27.2958 55.1812C26.9733 55.5068 26.6938 56.0424 26.4574 56.7879C26.221 57.5438 26.1028 58.5672 26.1028 59.858C26.0916 60.3067 26.1356 60.7552 26.2341 61.1934C26.3261 61.5427 26.4843 61.8715 26.7003 62.1625L26.9236 62.4571L26.7003 62.7342L23.4387 62.742Z" fill="white"/>
<path d="M35.829 62.9997C34.986 63.0215 34.1527 62.8173 33.4175 62.4086C32.7407 62.0133 32.1959 61.4305 31.8504 60.7321C31.4811 59.9256 31.2901 59.0504 31.2901 58.165C31.2901 57.2796 31.4811 56.4044 31.8504 55.5979C32.1984 54.9033 32.7428 54.3236 33.4175 53.9292C34.1615 53.5421 34.9894 53.3399 35.8299 53.3399C36.6705 53.3399 37.4984 53.5421 38.2424 53.9292C38.9166 54.3241 39.4609 54.9037 39.8095 55.5979C40.1775 56.4048 40.3679 57.2798 40.3679 58.165C40.3679 59.0502 40.1775 59.9253 39.8095 60.7321C39.4633 61.43 38.9187 62.0127 38.2424 62.4086C37.5064 62.8172 36.6726 63.0215 35.829 62.9997ZM35.7741 62.0035C36.5446 62.0035 37.178 61.6566 37.6743 60.9627C38.1705 60.2689 38.4187 59.356 38.4187 58.2241C38.4146 57.81 38.3747 57.3969 38.2992 56.9895C38.2207 56.543 38.0824 56.1089 37.8878 55.6987C37.7092 55.3114 37.4455 54.9685 37.116 54.6947C36.7667 54.4219 36.3305 54.281 35.8858 54.2974C35.3789 54.2918 34.8865 54.4649 34.4969 54.7858C34.0677 55.1479 33.7433 55.616 33.5566 56.1425C33.3215 56.7959 33.208 57.4861 33.2216 58.1795C33.2216 59.3347 33.4515 60.2598 33.9112 60.955C34.0998 61.2775 34.3717 61.5446 34.6991 61.7289C35.0265 61.9131 35.3975 62.0079 35.7741 62.0035Z" fill="white"/>
<path d="M41.8292 58.0962C41.8323 57.8551 41.8699 57.6156 41.9408 57.3849C41.9995 57.157 42.1299 56.9534 42.313 56.8035L47.2104 56.6193C47.2073 56.8593 47.1724 57.0978 47.1066 57.3287C47.0488 57.5619 46.9102 57.7677 46.7148 57.9101L41.8292 58.0962Z" fill="white"/>
<path d="M57.2558 63.2013L57.1069 63.0075C56.9698 62.835 56.7151 62.7497 56.3234 62.7497H48.8794L48.6835 62.1586L49.0753 62.0481C49.5239 61.9124 49.8236 61.7438 49.9803 61.5422C50.137 61.3407 50.2115 60.9608 50.2115 60.4259V51.9561C50.2115 51.3786 50.1312 50.9793 49.9705 50.7583C49.8079 50.5374 49.4925 50.3707 49.0204 50.2428L48.5914 50.1323L48.8147 49.5044H52.8952L53.1381 49.799L52.8952 50.1323C52.6101 50.5243 52.3929 50.9605 52.2527 51.4231C52.1049 52.0071 52.039 52.6084 52.0568 53.2101V60.2902C52.0568 60.8542 52.1351 61.2302 52.2899 61.4143C52.4447 61.5984 52.7659 61.6895 53.2498 61.6895H54.8502C55.2037 61.7037 55.557 61.6571 55.8943 61.5519C56.142 61.4572 56.3494 61.2814 56.482 61.0538C56.6614 60.7398 56.7933 60.4016 56.8738 60.0499L56.9855 59.6254L57.6202 59.8464V62.9997L57.2558 63.2013Z" fill="white"/>
<path d="M61.5224 62.9997C61.013 62.9997 60.6467 62.8447 60.4234 62.5385C60.2001 62.2322 60.0884 61.7341 60.0884 61.0441V55.3305C60.0884 55.061 59.9631 54.9254 59.7162 54.9254H58.8954L58.7289 54.4447C59.0982 54.1194 59.5158 53.8521 59.967 53.652C60.3475 53.4654 60.7631 53.3592 61.1874 53.34C61.2651 53.3365 61.3426 53.3493 61.4149 53.3777C61.4872 53.4061 61.5525 53.4494 61.6066 53.5047C61.7141 53.6199 61.7712 53.7725 61.7653 53.9292V61.1197C61.7653 61.5358 61.9514 61.7445 62.3236 61.7457C62.6712 61.7308 63.0019 61.5933 63.256 61.3581L63.6106 61.8388C63.3112 62.1752 62.9586 62.4613 62.5665 62.6857C62.2519 62.8782 61.892 62.9864 61.5224 62.9997ZM60.9641 51.8088C60.7888 51.7952 60.6223 51.7274 60.4881 51.615C60.3087 51.4799 60.152 51.3177 60.0238 51.1343C59.9063 50.9866 59.8379 50.8065 59.8279 50.6188C59.8385 50.4282 59.9067 50.2452 60.0238 50.0936C60.1492 49.9081 60.3032 49.7433 60.4802 49.6051C60.6138 49.4854 60.7842 49.4137 60.9641 49.4016C61.1531 49.412 61.3334 49.4835 61.4773 49.6051C61.6577 49.7421 61.8145 49.907 61.9416 50.0936C62.0586 50.2452 62.1269 50.4282 62.1375 50.6188C62.1275 50.8065 62.0591 50.9866 61.9416 51.1343C61.8128 51.3173 61.6562 51.4794 61.4773 51.615C61.3317 51.7325 61.1518 51.8005 60.9641 51.8088Z" fill="white"/>
<path d="M64.2531 67.128C63.6658 67.147 63.0889 66.9717 62.6135 66.6299C62.3959 66.4716 62.2209 66.2627 62.1041 66.0217C61.9873 65.7807 61.9321 65.515 61.9435 65.248C61.9394 65.0266 61.9828 64.8069 62.0709 64.6034C62.1591 64.3999 62.2899 64.2173 62.4548 64.0677C62.8118 63.7425 63.2844 63.5703 63.7693 63.5889C64.0043 63.5889 64.1219 63.6568 64.1219 63.7924C64.1025 63.8774 64.0574 63.9545 63.9926 64.0134C63.888 64.1364 63.8003 64.2726 63.7321 64.4185C63.6344 64.6392 63.5895 64.8793 63.6008 65.1201C63.5819 65.4445 63.6884 65.7639 63.8986 66.0136C63.9889 66.1161 64.1007 66.198 64.2262 66.2536C64.3517 66.3091 64.4879 66.337 64.6253 66.3353C64.8028 66.3327 64.9774 66.2899 65.1356 66.2103C65.2938 66.1307 65.4315 66.0163 65.5382 65.876C65.7994 65.5684 65.93 65.0768 65.93 64.401V54.7413H64.2904C64.2745 54.5234 64.2998 54.3046 64.3648 54.0958C64.4076 54.0352 64.4629 53.9841 64.527 53.946C64.5912 53.9079 64.6627 53.8837 64.737 53.8749L65.93 53.5784C65.93 51.9813 66.2153 50.7067 66.786 49.7544C67.3567 48.8021 68.2265 48.326 69.3953 48.326C70.1049 48.2974 70.8046 48.4973 71.3895 48.8958C71.7189 49.1091 71.9688 49.423 72.1012 49.7898C72.2337 50.1565 72.2413 50.5561 72.1231 50.9275C72.0049 51.299 71.7673 51.6221 71.4464 51.8477C71.1255 52.0733 70.7389 52.1889 70.3454 52.1771C70.1104 52.1771 69.9909 52.1112 69.9909 51.9833C70.0037 51.8937 70.0432 51.81 70.1045 51.7429C70.2002 51.6012 70.2748 51.4464 70.3258 51.2836C70.4096 51.0185 70.4474 50.7413 70.4375 50.4637C70.453 50.1164 70.333 49.7765 70.1025 49.514C69.9853 49.3924 69.8428 49.2974 69.6849 49.2355C69.5269 49.1736 69.3573 49.1463 69.1877 49.1555C68.6183 49.1555 68.2115 49.4346 67.9673 49.9928C67.7018 50.69 67.5787 51.4324 67.6049 52.1771V53.5784H70.2142C70.2142 54.1327 70.0712 54.5184 69.7852 54.7413H67.597V62.99C67.597 64.2188 67.3234 65.2176 66.7762 65.9864C66.229 66.7552 65.388 67.1358 64.2531 67.128Z" fill="white"/>
<path d="M75.2369 62.9997C74.4407 63.0189 73.6554 62.8139 72.9724 62.4086C72.3268 62.0105 71.8096 61.4383 71.4816 60.7592C71.1123 59.985 70.9306 59.1362 70.9507 58.2803C70.9259 57.3792 71.1278 56.486 71.5384 55.6813C71.9221 54.9584 72.5075 54.3597 73.2251 53.9563C74.0041 53.5322 74.8827 53.3196 75.7717 53.34C76.3883 53.317 77.0006 53.4504 77.5504 53.7276C77.9873 53.9582 78.3487 54.3071 78.5925 54.7335C78.8208 55.1359 78.9396 55.59 78.9373 56.0515C78.936 56.5681 78.8011 57.0758 78.5455 57.5264C78.2644 58.0203 77.8518 58.4286 77.3525 58.7067C76.7527 59.03 76.0763 59.1886 75.3936 59.1661C74.98 59.1544 74.5697 59.0892 74.1732 58.9722C73.964 58.916 73.7655 58.8263 73.5855 58.7067C73.5136 58.6648 73.4538 58.6054 73.4116 58.5342C73.3694 58.4629 73.3463 58.3822 73.3446 58.2997C73.3445 58.202 73.3731 58.1064 73.4268 58.0245C73.4452 57.9878 73.4729 57.9565 73.5073 57.9338C73.5417 57.911 73.5815 57.8975 73.6227 57.8946C73.7576 57.9053 73.8883 57.9464 74.0047 58.0148C74.2631 58.1122 74.5398 58.1532 74.8157 58.135C75.276 58.1519 75.7325 58.0468 76.138 57.8307C76.4694 57.6447 76.741 57.3699 76.9216 57.038C77.0904 56.7288 77.1798 56.3834 77.1821 56.0321C77.1843 55.5844 77.026 55.1504 76.7355 54.8072C76.4351 54.4441 75.9937 54.2625 75.4112 54.2625C75.0357 54.2543 74.6649 54.3459 74.3373 54.5275C74.0096 54.7092 73.7372 54.9744 73.5483 55.2956C73.0977 55.9817 72.8724 56.9766 72.8724 58.2803C72.8724 59.3618 73.1049 60.2159 73.5698 60.8426C74.0347 61.4692 74.721 61.7826 75.6287 61.7826C76.1315 61.7864 76.6308 61.6991 77.1018 61.5248C77.5682 61.3479 77.993 61.0781 78.3496 60.7321C78.3712 60.7091 78.3972 60.6908 78.4262 60.6781C78.4552 60.6654 78.4864 60.6588 78.5181 60.6584C78.5798 60.6651 78.6395 60.6839 78.6937 60.7139C78.7479 60.7439 78.7954 60.7843 78.8335 60.8329C78.9352 60.9266 78.9957 61.056 79.002 61.1934C79.0014 61.2244 78.9945 61.2549 78.9817 61.2832C78.9689 61.3116 78.9505 61.337 78.9275 61.3581C78.477 61.889 77.9111 62.3124 77.272 62.5967C76.633 62.8809 75.9373 63.0187 75.2369 62.9997Z" fill="white"/>
<path d="M45.0888 70.6438C54.9305 70.6438 62.0121 71.2757 69.0055 72.7448C69.1282 72.7517 69.2487 72.7792 69.362 72.8262L69.4737 72.8979C69.5491 72.9488 69.6079 73.0204 69.6429 73.1038C69.6779 73.1873 69.6876 73.279 69.6707 73.3678C69.6539 73.4566 69.6113 73.5386 69.5481 73.6039C69.485 73.6691 69.404 73.7147 69.315 73.7352C69.2548 73.7467 69.193 73.7467 69.1328 73.7352C67.2738 73.4406 65.4344 73.02 63.5753 72.737C56.747 71.7054 49.8325 71.3419 42.9321 71.6517C32.583 72.0994 22.4533 73.7449 12.6214 77.0359C11.8574 77.2936 11.1033 77.5785 10.3432 77.8479C10.1355 77.9216 9.91614 78.0553 9.71829 78.0321C9.64734 78.0236 9.57723 78.0094 9.50868 77.9894C9.42086 77.9668 9.34162 77.9193 9.28068 77.8528C9.21974 77.7863 9.17974 77.7036 9.1656 77.6149C9.15146 77.5262 9.16378 77.4354 9.20106 77.3535C9.23834 77.2717 9.29896 77.2023 9.37547 77.1541C9.39364 77.1441 9.41265 77.1357 9.43228 77.1289C11.3912 76.4447 13.3502 75.7509 15.3424 75.1617C25.9246 72.0373 36.7634 70.6787 45.0888 70.6438Z" fill="white"/>
</g>
<defs>
<clipPath id="clip0_2284_3898">
<rect width="79" height="88" fill="white"/>
</clipPath>
</defs>
</svg>
