<?xml version="1.0" encoding="utf-8"?><svg viewBox="0 0 24 24" xmlns="http://www.w3.org/2000/svg" xmlns:xlink="http://www.w3.org/1999/xlink"><style>:root>svg{display:none}:root>svg:target{display:block}</style><svg viewBox="0 0 5 8" id="arrow" xmlns="http://www.w3.org/2000/svg"><path d="M.75 7l3-3-3-3"/></svg><svg viewBox="0 0 11 11" id="arrow-change" xmlns="http://www.w3.org/2000/svg"><path d="M1.76 9.154l6.808-6.808m0 6.419v-6.42h-6.42"/></svg><svg viewBox="0 0 12 8" id="arrow-select" xmlns="http://www.w3.org/2000/svg"><path d="M6 7.713l6.01-6.01L10.597.288 6 4.888 1.404.288-.01 1.702 6 7.713z"/></svg><svg viewBox="0 0 20 20" id="arrows" xmlns="http://www.w3.org/2000/svg"><path fill-rule="evenodd" clip-rule="evenodd" d="M9.558 11.067a.625.625 0 00.884 0l6.25-6.25a.625.625 0 00-.884-.884L10 9.742 4.192 3.933a.625.625 0 00-.884.884l6.25 6.25z"/><path fill-rule="evenodd" clip-rule="evenodd" d="M9.558 16.067a.625.625 0 00.884 0l6.25-6.25a.624.624 0 10-.884-.884L10 14.742 4.192 8.933a.625.625 0 00-.884.884l6.25 6.25z"/></svg><svg viewBox="0 0 16 18" id="bin" xmlns="http://www.w3.org/2000/svg"><path fill-rule="evenodd" clip-rule="evenodd" d="M11.75 2.732v.189c1.082.099 2.16.241 3.232.426a.625.625 0 11-.214 1.232l-.174-.029-.837 10.892a2.5 2.5 0 01-2.493 2.308H4.737a2.5 2.5 0 01-2.493-2.308L1.406 4.55l-.174.03a.625.625 0 11-.214-1.233 40.47 40.47 0 013.232-.426v-.19C4.25 1.429 5.26.316 6.597.273c.935-.03 1.872-.03 2.807 0 1.336.043 2.346 1.156 2.346 2.46zm-5.113-1.21c.909-.03 1.818-.03 2.727 0 .628.02 1.136.548 1.136 1.21v.094a41.239 41.239 0 00-5 0v-.094c0-.662.508-1.19 1.137-1.21zM6.34 6.476a.625.625 0 10-1.25.048l.289 7.5a.625.625 0 101.25-.048l-.29-7.5zm4.567.048a.626.626 0 10-1.249-.048l-.289 7.5a.625.625 0 101.25.048l.288-7.5z"/></svg><svg viewBox="0 0 20 20" id="block" xmlns="http://www.w3.org/2000/svg"><path fill-rule="evenodd" clip-rule="evenodd" d="M5.6 4.717l9.683 9.683A6.875 6.875 0 005.6 4.717zm8.8 10.566L4.717 5.6a6.875 6.875 0 009.683 9.683zM4.254 4.255a8.124 8.124 0 0111.49 0 8.124 8.124 0 010 11.49 8.124 8.124 0 01-11.49 0 8.124 8.124 0 010-11.49z"/></svg><svg viewBox="0 0 18 18" id="book-fill" xmlns="http://www.w3.org/2000/svg"><path d="M15 16.5H4.875a2.625 2.625 0 01-2.625-2.625V3.75A2.25 2.25 0 014.5 1.5H15a.75.75 0 01.75.75v13.5a.75.75 0 01-.75.75zm-.75-1.5v-2.25H4.875a1.125 1.125 0 100 2.25h9.375z"/></svg><svg viewBox="0 0 18 20" id="calendar" xmlns="http://www.w3.org/2000/svg"><path d="M16 20H2a2 2 0 01-2-2V4a2 2 0 012-2h2V0h2v2h6V0h2v2h2a2 2 0 012 2v14a2 2 0 01-2 2zM2 8v10h14V8H2zm0-4v2h14V4H2zm12 12h-2v-2h2v2zm-4 0H8v-2h2v2zm-4 0H4v-2h2v2zm8-4h-2v-2h2v2zm-4 0H8v-2h2v2zm-4 0H4v-2h2v2z"/></svg><svg viewBox="0 0 8 6" id="check" xmlns="http://www.w3.org/2000/svg"><path d="M1.292 2.909a.4.4 0 00-.565.565l2 2a.4.4 0 00.565 0l4.4-4.4A.4.4 0 107.127.51L3.009 4.626 1.292 2.909z"/></svg><svg viewBox="0 0 10 10" id="close" xmlns="http://www.w3.org/2000/svg"><path fill-rule="evenodd" clip-rule="evenodd" d="M.647.646a.5.5 0 01.706 0L5 4.293 8.647.646a.5.5 0 11.706.707L5.707 5l3.646 3.646a.5.5 0 11-.706.707L5 5.706 1.353 9.353a.5.5 0 01-.706-.707L4.293 5 .647 1.353a.5.5 0 010-.707z"/></svg><svg viewBox="0 0 18 18" id="dashboard-rounded" xmlns="http://www.w3.org/2000/svg"><path d="M10.5 6.75a.724.724 0 01-.534-.216A.73.73 0 019.75 6V3c0-.212.072-.39.216-.534a.73.73 0 01.534-.216H15c.213 0 .39.072.535.216A.723.723 0 0115.75 3v3c0 .213-.072.39-.216.535A.723.723 0 0115 6.75h-4.5zm-7.5 3a.724.724 0 01-.534-.216A.73.73 0 012.25 9V3c0-.212.072-.39.216-.534A.73.73 0 013 2.25h4.5c.213 0 .39.072.535.216A.723.723 0 018.25 3v6c0 .213-.072.39-.216.535a.723.723 0 01-.534.215H3zm7.5 6a.724.724 0 01-.534-.216A.73.73 0 019.75 15V9c0-.213.072-.39.216-.534a.73.73 0 01.534-.216H15c.213 0 .39.072.535.216A.723.723 0 0115.75 9v6c0 .213-.072.39-.216.535a.723.723 0 01-.534.215h-4.5zm-7.5 0a.724.724 0 01-.534-.216A.73.73 0 012.25 15v-3c0-.213.072-.39.216-.534A.73.73 0 013 11.25h4.5c.213 0 .39.072.535.216A.723.723 0 018.25 12v3c0 .213-.072.39-.216.535a.723.723 0 01-.534.215H3z"/></svg><svg viewBox="0 0 20 20" id="edit" xmlns="http://www.w3.org/2000/svg"><path d="M18.11 1.89a2.187 2.187 0 00-3.094 0l-.964.965 3.093 3.093.964-.964a2.187 2.187 0 000-3.093zm-1.85 4.942L13.168 3.74l-7 7a4.375 4.375 0 00-1.1 1.845l-.666 2.238a.625.625 0 00.777.777l2.238-.667a4.375 4.375 0 001.845-1.1l7-7z"/><path d="M4.375 4.375a2.5 2.5 0 00-2.5 2.5v8.75a2.5 2.5 0 002.5 2.5h8.75a2.5 2.5 0 002.5-2.5V11.25a.624.624 0 10-1.25 0v4.375a1.25 1.25 0 01-1.25 1.25h-8.75a1.25 1.25 0 01-1.25-1.25v-8.75a1.25 1.25 0 011.25-1.25H8.75a.625.625 0 000-1.25H4.375z"/></svg><svg viewBox="0 0 15 14" id="heart" xmlns="http://www.w3.org/2000/svg"><g clip-path="url(#ama)"><path d="M13.928 2.962a3.832 3.832 0 00-6.09-.997l-.501.455-.484-.444a3.81 3.81 0 00-3.32-1.05A3.762 3.762 0 00.746 2.962a3.722 3.722 0 00.706 4.352l5.466 5.635a.583.583 0 00.84 0l5.46-5.623a3.733 3.733 0 00.711-4.364z"/></g><defs><clipPath id="ama"><path transform="translate(.336)" d="M0 0h14v14H0z"/></clipPath></defs></svg><svg viewBox="0 0 18 18" id="list-fill" xmlns="http://www.w3.org/2000/svg"><path d="M14.625 2.25H3.375A1.125 1.125 0 002.25 3.375v11.25a1.125 1.125 0 001.125 1.125h11.25a1.125 1.125 0 001.125-1.125V3.375a1.125 1.125 0 00-1.125-1.125zM13.5 12.938h-9a.563.563 0 010-1.126h9a.562.562 0 110 1.126zm0-3.376h-9a.563.563 0 110-1.124h9a.562.562 0 110 1.124zm0-3.374h-9a.563.563 0 110-1.125h9a.562.562 0 110 1.125z"/></svg><svg viewBox="0 0 24 24" id="location" xmlns="http://www.w3.org/2000/svg"><path d="M12 21a29.767 29.767 0 01-3.5-3.53C6.9 15.557 5 12.711 5 10a7 7 0 0111.952-4.95A6.955 6.955 0 0119 10c0 2.712-1.9 5.558-3.5 7.47A29.768 29.768 0 0112 21zm0-14a3 3 0 100 6 3 3 0 000-6z"/></svg><svg viewBox="0 0 15 14" id="lock" xmlns="http://www.w3.org/2000/svg"><path fill-rule="evenodd" clip-rule="evenodd" d="M7.336.875a3.063 3.063 0 00-3.062 3.063v1.75a1.75 1.75 0 00-1.75 1.75v3.937a1.75 1.75 0 001.75 1.75h6.125a1.75 1.75 0 001.75-1.75V7.437a1.75 1.75 0 00-1.75-1.75v-1.75A3.062 3.062 0 007.336.876zm2.188 4.813v-1.75a2.188 2.188 0 00-4.375 0v1.75h4.375z"/></svg><svg viewBox="0 0 18 18" id="logout" xmlns="http://www.w3.org/2000/svg"><path fill-rule="evenodd" clip-rule="evenodd" d="M12.375 2.813A1.125 1.125 0 0113.5 3.937v10.126a1.125 1.125 0 01-1.125 1.124h-4.5a1.125 1.125 0 01-1.125-1.124V11.25a.562.562 0 10-1.125 0v2.813a2.25 2.25 0 002.25 2.25h4.5a2.25 2.25 0 002.25-2.25V3.937a2.25 2.25 0 00-2.25-2.25h-4.5a2.25 2.25 0 00-2.25 2.25V6.75a.563.563 0 001.125 0V3.937a1.125 1.125 0 011.125-1.124h4.5zm-8.04 3.54a.562.562 0 00-.795 0l-2.25 2.25a.563.563 0 000 .795l2.25 2.25a.562.562 0 00.795-.796l-1.29-1.29h8.205a.562.562 0 100-1.124H3.045l1.29-1.29a.563.563 0 000-.795z"/></svg><svg viewBox="0 0 18 18" id="mes" xmlns="http://www.w3.org/2000/svg"><path d="M1.125 6.503v6.434a2.25 2.25 0 002.25 2.25h11.25a2.25 2.25 0 002.25-2.25V6.503l-6.696 4.12a2.25 2.25 0 01-2.358 0l-6.696-4.12z"/><path d="M16.875 5.181v-.119a2.25 2.25 0 00-2.25-2.25H3.375a2.25 2.25 0 00-2.25 2.25v.119l7.286 4.484a1.125 1.125 0 001.178 0l7.286-4.484z"/></svg><svg viewBox="0 0 18 18" id="messages" xmlns="http://www.w3.org/2000/svg"><path d="M1.125 6.503v6.434a2.25 2.25 0 002.25 2.25h11.25a2.25 2.25 0 002.25-2.25V6.503l-6.696 4.12a2.25 2.25 0 01-2.358 0l-6.696-4.12z"/><path d="M16.875 5.181v-.119a2.25 2.25 0 00-2.25-2.25H3.375a2.25 2.25 0 00-2.25 2.25v.119l7.286 4.484a1.125 1.125 0 001.178 0l7.286-4.484z"/></svg><svg viewBox="0 0 14 14" id="notification" xmlns="http://www.w3.org/2000/svg"><path fill-rule="evenodd" clip-rule="evenodd" d="M2.5 5a4.5 4.5 0 019 0v.5c0 1.415.533 2.705 1.412 3.68a.5.5 0 01-.198.804c-1.03.38-2.107.66-3.22.829a2.5 2.5 0 11-4.987 0 16.392 16.392 0 01-3.221-.83.5.5 0 01-.199-.803A5.478 5.478 0 002.5 5.5V5zm3 5.933a1.5 1.5 0 102.998 0c-.997.09-2 .09-2.998 0z"/></svg><svg viewBox="0 0 18 18" id="paw" xmlns="http://www.w3.org/2000/svg"><path fill-rule="evenodd" clip-rule="evenodd" d="M6.188 5.063a2.813 2.813 0 115.625 0 2.813 2.813 0 01-5.626 0zm5.625 2.25a2.25 2.25 0 114.5 0 2.25 2.25 0 01-4.5 0zm-10.126 0a2.25 2.25 0 114.5 0 2.25 2.25 0 01-4.5 0zm3.045 4.025A5.06 5.06 0 019 9a5.059 5.059 0 015.032 5.623.562.562 0 01-.28.427A9.523 9.523 0 019 16.311a9.517 9.517 0 01-4.753-1.263.563.563 0 01-.279-.425 5.09 5.09 0 01.764-3.286z"/><path d="M3.812 10.69a6.215 6.215 0 00-.982 3.852 7.253 7.253 0 01-1.323-.33l-.086-.03a.422.422 0 01-.28-.366l-.007-.09a2.812 2.812 0 012.678-3.036zm11.357 3.852a6.215 6.215 0 00-.98-3.851 2.813 2.813 0 012.677 3.035l-.008.09a.422.422 0 01-.28.365l-.085.03c-.426.15-.867.262-1.323.33z"/></svg><svg viewBox="0 0 20 20" id="profile" xmlns="http://www.w3.org/2000/svg"><path fill-rule="evenodd" clip-rule="evenodd" d="M6.25 5a3.75 3.75 0 117.5 0 3.75 3.75 0 01-7.5 0zM3.126 16.754a6.875 6.875 0 0113.748 0 .626.626 0 01-.364.58A15.569 15.569 0 0110 18.75c-2.322 0-4.527-.507-6.51-1.417a.625.625 0 01-.364-.579z"/></svg><svg viewBox="0 0 24 24" id="refresh" xmlns="http://www.w3.org/2000/svg"><path d="M11.995 4a8 8 0 107.735 10h-2.081a6 6 0 11-5.654-8 5.92 5.92 0 014.223 1.78L13 11h7V4l-2.351 2.35A7.965 7.965 0 0011.995 4z"/></svg><svg viewBox="0 0 18 18" id="report-rounded" xmlns="http://www.w3.org/2000/svg"><path d="M9 12.75c.213 0 .39-.072.535-.216A.723.723 0 009.75 12a.73.73 0 00-.216-.534A.724.724 0 009 11.25a.724.724 0 00-.534.216.73.73 0 00-.216.534c0 .212.072.39.216.535A.72.72 0 009 12.75zm0-3c.213 0 .39-.072.535-.216A.723.723 0 009.75 9V6a.724.724 0 00-.216-.534A.73.73 0 009 5.25a.722.722 0 00-.534.216A.727.727 0 008.25 6v3c0 .213.072.39.216.535A.723.723 0 009 9.75zm-2.194 6a1.478 1.478 0 01-1.05-.431l-3.075-3.075a1.48 1.48 0 01-.431-1.05V6.808a1.478 1.478 0 01.431-1.05l3.075-3.075a1.492 1.492 0 011.05-.432h4.388a1.484 1.484 0 011.05.431l3.075 3.075a1.482 1.482 0 01.431 1.05v4.388a1.484 1.484 0 01-.431 1.05l-3.075 3.075a1.482 1.482 0 01-1.05.431H6.806z"/></svg><svg viewBox="0 0 17 18" id="search" xmlns="http://www.w3.org/2000/svg"><path d="M14.565 7.925a7.087 7.087 0 00-2.09-5.04 7.14 7.14 0 00-10.107 10.08 7.138 7.138 0 009.468.556l3.797 3.8 1.2-1.2-3.802-3.778a7.082 7.082 0 001.534-4.418zm-7.14 5.46A5.422 5.422 0 013.57 11.79a5.46 5.46 0 017.714-7.728 5.46 5.46 0 010 7.714 5.423 5.423 0 01-3.86 1.608z"/></svg><svg viewBox="0 0 18 18" id="user" xmlns="http://www.w3.org/2000/svg"><path fill-rule="evenodd" clip-rule="evenodd" d="M5.625 4.5a3.375 3.375 0 116.75 0 3.375 3.375 0 01-6.75 0zM2.813 15.079a6.188 6.188 0 0112.374 0 .563.563 0 01-.328.521 14.012 14.012 0 01-5.86 1.275c-2.089 0-4.074-.456-5.858-1.275a.562.562 0 01-.328-.521z"/></svg><svg viewBox="0 0 15 14" id="user-spec" xmlns="http://www.w3.org/2000/svg"><path fill-rule="evenodd" clip-rule="evenodd" d="M4.711 3.5a2.625 2.625 0 115.25 0 2.625 2.625 0 01-5.25 0zm-2.186 8.228a4.813 4.813 0 019.623 0 .437.437 0 01-.255.405 10.9 10.9 0 01-4.557.992 10.9 10.9 0 01-4.557-.992.438.438 0 01-.254-.405z"/></svg><svg viewBox="0 0 24 24" id="users" xmlns="http://www.w3.org/2000/svg"><path d="M9 3a5 5 0 100 10A5 5 0 009 3zM6 8a3 3 0 116 0 3 3 0 01-6 0zm10.908.218A2 2 0 0016 8V6a4 4 0 11-2.357 7.232l1.178-1.616a2 2 0 102.087-3.398zM19.998 21A3.999 3.999 0 0016 17.002V15a6.001 6.001 0 016 6h-2.002zM16 21h-2a5 5 0 00-10 0H2a7 7 0 1114 0z"/></svg></svg>